<svg width="40" height="39" viewBox="0 0 40 39" fill="none" xmlns="http://www.w3.org/2000/svg">
<path fill-rule="evenodd" clip-rule="evenodd" d="M34.0339 22.9131C37.9156 18.5401 39.2541 12.6241 39.1664 10.0038C39.0787 7.38346 39.0163 6.97928 34.5731 2.56261C32.2335 0.236988 31.2525 0.0104749 26.1618 4.08821e-07C25.388 3.66799e-05 24.6256 4.08821e-07 23.6717 4.08821e-07L15.0993 0C19.0424 0.930613 22.755 2.46518 25.4506 5.35908C28.1463 8.25298 29.2243 11.0178 28.5204 16.1551C27.9618 20.2314 25.8455 23.8613 20.8133 24.9224C25.2355 26.8929 31.3084 25.9834 34.0339 22.9131Z" fill="white"/>
<path fill-rule="evenodd" clip-rule="evenodd" d="M16.9491 33.1334C21.3484 36.9919 27.3 38.3225 29.936 38.2353C32.5721 38.1481 33.2381 37.8282 37.117 33.9726C39.695 31.41 39.9895 30.3687 40 25.3084C40 24.5393 40 23.7814 40 22.8332V14.3121C39.0638 18.2316 37.52 21.922 34.6087 24.6015C31.6974 27.2811 28.9159 28.3527 23.7477 27.6529C19.6469 27.0977 15.9951 24.994 14.9277 19.992C12.9453 24.3877 13.8602 30.4243 16.9491 33.1334Z" fill="white"/>
<path fill-rule="evenodd" clip-rule="evenodd" d="M6.20685 16.0869C2.3251 20.4599 0.986564 26.3759 1.07426 28.9962C1.16196 31.6165 1.4247 32.2199 5.66761 36.4374C8.06095 38.8164 8.98825 38.9895 14.079 39C14.8527 39 15.6151 39 16.5691 39H25.1414C21.1983 38.0694 17.4857 36.5348 14.7901 33.6409C12.0944 30.747 11.0164 27.9822 11.7203 22.8449C12.2789 18.7686 14.3952 15.1387 19.4274 14.0776C15.0052 12.1071 8.93229 13.0166 6.20685 16.0869Z" fill="white"/>
<path fill-rule="evenodd" clip-rule="evenodd" d="M23.0509 5.71221C18.462 2.07846 12.7 0.523142 10.064 0.610315C8.06095 0.676554 7.62202 0.843298 2.72382 5.71221C0.436471 7.98587 0.01054 8.47697 1.81003e-06 13.5372C3.82015e-05 14.3063 1.61579e-06 15.0642 1.49518e-06 16.0124L0 24.5335C0.936213 20.614 2.48001 16.9236 5.39132 14.2441C8.30264 11.5646 11.0841 10.4929 16.2523 11.1927C20.3531 11.748 24.3832 13.7274 25.4506 18.7295C27.433 14.3337 26.6647 8.57376 23.0509 5.71221Z" fill="white"/>
</svg>
