<svg width="1440" height="212" viewBox="0 0 1440 212" fill="none" xmlns="http://www.w3.org/2000/svg">
<path opacity="0.3" d="M-108.06 207.762L-94.7657 210.637M-108.06 207.762L-68.6627 207.762M-108.06 207.762L-121.797 204.792M-108.06 207.762L-135.962 207.762M-94.7657 210.637L-99.6033 210.635L-104.391 210.629L-109.079 210.612L-113.62 210.577L-117.964 210.521L-122.064 210.437L-125.873 210.32L-129.408 210.171L-132.441 209.965L-135.203 209.726L-135.962 209.642L-135.962 207.762M-94.7657 210.637L-56.0015 210.637M-56.0015 210.637L-17.2373 210.637M-56.0015 210.637L-68.6627 207.762M-17.2373 210.637L21.5279 210.637M-17.2373 210.637L-29.265 207.762M21.5279 210.637L60.2921 210.637M21.5279 210.637L10.1318 207.762M60.2921 210.637L99.0563 210.637M60.2921 210.637L49.5293 207.762M99.0563 210.637L137.821 210.637M99.0563 210.637L88.927 207.762M137.821 210.637L176.586 210.637M137.821 210.637L128.325 207.762M176.586 210.637L215.35 210.637M176.586 210.637L167.722 207.762M215.35 210.637L254.115 210.637M215.35 210.637L207.12 207.762M254.115 210.637L292.879 210.637M254.115 210.637L246.518 207.762M292.879 210.637L331.643 210.637M292.879 210.637L285.915 207.762M331.643 210.637L370.408 210.637M331.643 210.637L325.313 207.762M370.408 210.637L409.173 210.637M370.408 210.637L369.001 209.926L366.868 208.851L364.711 207.762M409.173 210.637L447.937 210.637M409.173 210.637L407.922 209.926L404.108 207.762M447.937 210.637L486.701 210.637M447.937 210.637L443.506 207.762M486.701 210.637L525.466 210.637M486.701 210.637L485.292 209.569L483.864 208.49L483.385 208.126L482.903 207.762M525.466 210.637L564.231 210.637M525.466 210.637L524.292 209.569L523.896 209.211L523.499 208.851L522.3 207.762M564.231 210.637L602.995 210.637M564.231 210.637L561.698 207.762M602.995 210.637L602.761 210.282L602.526 209.926L601.337 208.126L601.096 207.762M602.995 210.637L641.759 210.637M641.759 210.637L680.524 210.637M641.759 210.637L640.493 207.762M680.524 210.637L719.289 210.637M680.524 210.637L680.289 209.569L679.891 207.762M719.289 210.637L758.053 210.637M719.289 210.637L719.289 207.762M758.053 210.637L796.818 210.637M758.053 210.637L758.288 209.569L758.686 207.762M796.818 210.637L835.582 210.637M796.818 210.637L798.084 207.762M835.582 210.637L835.817 210.282L836.051 209.926L837.24 208.126L837.482 207.762M835.582 210.637L874.347 210.637M874.347 210.637L913.112 210.637M874.347 210.637L876.558 208.126L876.879 207.762M913.112 210.637L951.876 210.637M913.112 210.637L914.286 209.569L914.681 209.211L915.476 208.49L915.875 208.126L916.277 207.762M951.876 210.637L990.64 210.637M951.876 210.637L953.285 209.569L954.713 208.49L955.193 208.126L955.675 207.762M990.64 210.637L1029.4 210.637M990.64 210.637L995.071 207.762M1029.4 210.637L1068.17 210.637M1029.4 210.637L1030.66 209.926L1034.47 207.762M1068.17 210.637L1106.93 210.637M1068.17 210.637L1073.87 207.762M1106.93 210.637L1145.7 210.637M1106.93 210.637L1113.26 207.762M1145.7 210.637L1184.46 210.637M1145.7 210.637L1152.66 207.762M1184.46 210.637L1223.23 210.637M1184.46 210.637L1192.06 207.762M1223.23 210.637L1261.99 210.637M1223.23 210.637L1231.46 207.762M1261.99 210.637L1300.76 210.637M1261.99 210.637L1270.86 207.762M1300.76 210.637L1339.52 210.637M1300.76 210.637L1310.25 207.762M1339.52 210.637L1378.29 210.637M1339.52 210.637L1349.65 207.762M1378.29 210.637L1417.05 210.637M1378.29 210.637L1389.05 207.762M1417.05 210.637L1455.81 210.637M1417.05 210.637L1428.45 207.762M1455.81 210.637L1494.58 210.637M1455.81 210.637L1467.84 207.762M1494.58 210.637L1533.34 210.637M1494.58 210.637L1507.24 207.762M1533.34 210.637L1538.18 210.636L1542.97 210.629L1547.66 210.612L1552.2 210.577L1556.54 210.521L1560.64 210.437L1564.45 210.32L1567.99 210.171L1571.02 209.965L1573.78 209.726L1574.54 209.642L1574.54 207.762M1533.34 210.637L1546.64 207.762M1467.84 207.762L1428.45 207.762M1467.84 207.762L1507.24 207.762M1467.84 207.762L1480.27 204.792M1428.45 207.762L1440.22 204.792M1428.45 207.762L1389.05 207.762M1310.25 207.762L1270.86 207.762M1310.25 207.762L1349.65 207.762M1310.25 207.762L1312.67 207.029L1320.06 204.792M1270.86 207.762L1280.01 204.792M1270.86 207.762L1231.46 207.762M1152.66 207.762L1113.26 207.762M1152.66 207.762L1192.06 207.762M1152.66 207.762L1154.44 207.029L1155.33 206.66L1159.86 204.792M1113.26 207.762L1114.07 207.396L1114.88 207.029L1119.81 204.792M1113.26 207.762L1073.87 207.762M995.071 207.762L995.636 207.396L999.651 204.792M995.071 207.762L955.675 207.762M995.071 207.762L1034.47 207.762M955.675 207.762L956.643 207.029L957.131 206.66L957.62 206.29L959.599 204.792M955.675 207.762L916.277 207.762M837.482 207.762L798.084 207.762M837.482 207.762L876.879 207.762M837.482 207.762L839.443 204.792M798.084 207.762L798.245 207.396L798.406 207.029L798.57 206.66L799.061 205.544L799.392 204.792M798.084 207.762L758.686 207.762M679.891 207.762L640.493 207.762M679.891 207.762L719.289 207.762M679.891 207.762L679.237 204.792M640.493 207.762L640.332 207.396L640.171 207.029L640.008 206.66L639.186 204.792M640.493 207.762L601.096 207.762M522.3 207.762L482.903 207.762M522.3 207.762L561.698 207.762M522.3 207.762L521.493 207.029L519.858 205.544L519.445 205.169L519.03 204.792M482.903 207.762L481.934 207.029L481.446 206.66L480.957 206.289L478.978 204.792M482.903 207.762L443.506 207.762M364.711 207.762L325.313 207.762M364.711 207.762L404.108 207.762M364.711 207.762L363.257 207.029L362.525 206.66L358.824 204.792M325.313 207.762L324.507 207.396L323.698 207.029L318.772 204.792M325.313 207.762L285.915 207.762M207.12 207.762L167.722 207.762M207.12 207.762L246.518 207.762M207.12 207.762L205.02 207.029L203.964 206.66L198.617 204.792M167.722 207.762L158.565 204.792M167.722 207.762L128.325 207.762M49.5293 207.762L10.1318 207.762M49.5293 207.762L88.927 207.762M49.5293 207.762L38.4102 204.792M10.1318 207.762L-1.64224 204.792M10.1318 207.762L-29.265 207.762M1574.68 180.879L1574.54 180.879M1535.02 180.879L1519.98 184.673M1535.02 180.879L1550.64 176.94M1535.02 180.879L1489.7 180.879M1535.02 180.879L1574.54 180.879M1519.98 184.673L1564.46 184.673M1519.98 184.673L1505.48 188.33M1519.98 184.673L1475.5 184.673M1564.46 184.673L1549.16 188.33M1564.46 184.673L1574.54 184.673M1564.46 184.673L1574.54 182.266M1520.16 195.26L1478.01 195.26M1520.16 195.26L1506.41 198.547M1520.16 195.26L1562.31 195.26M1520.16 195.26L1534.4 191.857M1478.01 195.26L1464.98 198.547M1478.01 195.26L1491.5 191.857M1478.01 195.26L1435.86 195.26M1506.41 198.547L1464.98 198.547M1506.41 198.547L1493.12 201.722M1506.41 198.547L1547.84 198.547M1464.98 198.547L1423.55 198.547M1464.98 198.547L1452.39 201.722M1574.97 120.995L1574.54 120.995M1538.41 120.995L1519.01 127.285M1538.41 120.995L1558.77 114.391M1538.41 120.995L1479.9 120.995M1538.41 120.995L1574.54 120.995M1519.01 127.285L1500.51 133.284M1519.01 127.285L1461.89 127.285M1519.01 127.285L1574.54 127.285M1556.31 133.284L1500.51 133.284M1556.31 133.284L1537.39 139.012M1556.31 133.284L1574.54 133.284M1556.31 133.284L1574.54 127.767M1519.3 144.487L1465.97 144.487M1519.3 144.487L1502 149.724M1519.3 144.487L1572.63 144.487M1519.3 144.487L1537.39 139.012M1465.97 144.487L1449.82 149.724M1465.97 144.487L1482.85 139.012M1465.97 144.487L1412.63 144.487M1502 149.724L1449.82 149.724M1502 149.724L1554.18 149.724M1502 149.724L1485.42 154.74M1449.82 149.724L1434.35 154.74M1449.82 149.724L1397.64 149.724M1454.3 164.161L1405.3 164.161M1454.3 164.161L1439.67 168.59M1454.3 164.161L1503.3 164.161M1454.3 164.161L1469.54 159.549M1405.3 164.161L1391.64 168.59M1405.3 164.161L1419.52 159.549M1405.3 164.161L1356.3 164.161M1439.67 168.59L1391.64 168.59M1439.67 168.59L1487.69 168.59M1439.67 168.59L1425.61 172.847M1391.64 168.59L1378.52 172.846M1391.64 168.59L1343.62 168.59M1399.07 180.879L1353.75 180.879M1399.07 180.879L1386.53 184.673M1399.07 180.879L1444.39 180.879M1399.07 180.879L1412.08 176.94M1353.75 180.879L1342.05 184.673M1353.75 180.879L1365.9 176.94M1353.75 180.879L1308.43 180.879M1386.53 184.673L1342.05 184.673M1386.53 184.673L1431.02 184.673M1386.53 184.673L1374.45 188.33M1342.05 184.673L1330.77 188.33M1342.05 184.673L1297.57 184.673M1351.56 195.26L1309.41 195.26M1351.56 195.26L1340.7 198.547M1351.56 195.26L1393.71 195.26M1351.56 195.26L1362.8 191.857M1309.41 195.26L1299.27 198.547M1309.41 195.26L1319.9 191.857M1309.41 195.26L1267.25 195.26M1340.7 198.547L1299.27 198.547M1340.7 198.547L1330.21 201.722M1340.7 198.547L1382.13 198.547M1299.27 198.547L1257.84 198.547M1299.27 198.547L1289.48 201.722M1544.56 11.941L1517.27 24.3355M1544.56 11.941L1573.8 -1.33143M1544.56 11.941L1462.04 11.941M1544.56 11.941L1574.54 11.941M1517.27 24.3355L1491.71 35.9361M1517.27 24.3355L1437.47 24.3355M1517.27 24.3355L1574.54 24.3355M1517.82 57.0435L1445.23 57.0435M1517.82 57.0435L1494.49 66.6717M1517.82 57.0435L1542.59 46.817M1517.82 57.0435L1574.54 57.0435M1445.23 57.0435L1424.02 66.6717M1445.23 57.0435L1467.75 46.817M1445.23 57.0435L1372.63 57.0435M1494.49 66.6717L1424.02 66.6717M1494.49 66.6717L1564.96 66.6717M1494.49 66.6717L1472.49 75.7541M1424.02 66.6717L1404.01 75.7541M1424.02 66.6717L1353.55 66.6717M1432.03 92.4545L1367.23 92.4545M1432.03 92.4545L1413.38 100.149M1432.03 92.4545L1496.82 92.4545M1432.03 92.4545L1451.7 84.3343M1367.23 92.4545L1350.28 100.149M1367.23 92.4545L1385.12 84.3343M1367.23 92.4545L1302.44 92.4545M1413.38 100.149L1350.28 100.149M1413.38 100.149L1476.48 100.149M1413.38 100.149L1395.69 107.452M1350.28 100.149L1334.2 107.452M1350.28 100.149L1287.18 100.149M1362.88 120.995L1304.37 120.994M1362.88 120.995L1347.64 127.285M1362.88 120.995L1421.39 120.995M1362.88 120.995L1378.88 114.391M1304.37 120.994L1290.52 127.285M1304.37 120.994L1318.92 114.391M1304.37 120.994L1245.86 120.994M1347.64 127.285L1290.52 127.285M1347.64 127.285L1404.76 127.285M1347.64 127.285L1333.11 133.284M1290.52 127.285L1277.3 133.284M1290.52 127.285L1233.4 127.285M1305.96 144.487L1252.63 144.487M1305.96 144.487L1293.27 149.724M1305.96 144.487L1359.3 144.487M1305.96 144.487L1319.23 139.012M1252.63 144.487L1241.09 149.724M1252.63 144.487L1264.69 139.012M1252.63 144.487L1199.3 144.487M1293.27 149.724L1241.09 149.724M1293.27 149.724L1345.45 149.724M1293.27 149.724L1281.12 154.74M1241.09 149.724L1230.05 154.74M1241.09 149.724L1188.91 149.724M1258.3 164.161L1209.3 164.161M1258.3 164.161L1247.57 168.59M1258.3 164.161L1307.3 164.161M1258.3 164.161L1269.47 159.549M1209.3 164.161L1208.05 164.725L1199.54 168.59M1209.3 164.161L1219.46 159.549M1209.3 164.161L1160.3 164.161M1247.57 168.59L1199.54 168.59M1247.57 168.59L1295.59 168.59M1247.57 168.59L1237.25 172.846M1199.54 168.59L1190.17 172.846M1199.54 168.59L1151.52 168.59M1217.79 180.879L1172.47 180.879M1217.79 180.879L1208.6 184.673M1217.79 180.879L1263.11 180.879M1217.79 180.879L1227.34 176.94M1172.47 180.879L1164.12 184.673M1172.47 180.879L1175.69 179.419L1181.15 176.94M1172.47 180.879L1127.16 180.879M1208.6 184.673L1164.12 184.673M1208.6 184.673L1253.08 184.673M1208.6 184.673L1199.74 188.33M1164.12 184.673L1156.06 188.33M1164.12 184.673L1119.64 184.673M1182.95 195.26L1140.8 195.26M1182.95 195.26L1174.99 198.547M1182.95 195.26L1225.1 195.26M1182.95 195.26L1191.2 191.857M1140.8 195.26L1135.35 197.735L1134.45 198.142L1133.56 198.547M1140.8 195.26L1148.3 191.857M1140.8 195.26L1098.65 195.26M1174.99 198.547L1133.56 198.547M1174.99 198.547L1167.3 201.722M1174.99 198.547L1216.42 198.547M1133.56 198.547L1092.13 198.547M1133.56 198.547L1126.57 201.722M1514.66 -129.249L1401.04 -129.249M1514.66 -129.249L1478.88 -106.043M1514.66 -129.249L1553.98 -154.749M1514.66 -129.249L1574.54 -129.249M1401.04 -129.249L1370.37 -106.043M1401.04 -129.249L1434.74 -154.749M1401.04 -129.249L1287.41 -129.249M1478.88 -106.043L1370.37 -106.043M1478.88 -106.043L1446.19 -84.8349M1478.88 -106.043L1574.54 -106.043M1370.37 -106.043L1342.34 -84.8349M1370.37 -106.043L1261.86 -106.043M1388.57 -47.4623L1292.96 -47.4623M1388.57 -47.4623L1363.05 -30.9127M1388.57 -47.4623L1484.18 -47.4622M1388.57 -47.4623L1416.19 -65.3774M1292.96 -47.4623L1271.09 -30.9128M1292.96 -47.4623L1316.63 -65.3774M1292.96 -47.4623L1197.34 -47.4623M1363.05 -30.9127L1271.09 -30.9128M1363.05 -30.9127L1455.02 -30.9127M1363.05 -30.9127L1339.41 -15.5791M1271.09 -30.9128L1250.82 -15.5792M1271.09 -30.9128L1179.12 -30.9128M1296.98 11.941L1214.45 11.941M1296.98 11.941L1277.87 24.3355M1296.98 11.941L1379.51 11.941M1296.98 11.941L1317.44 -1.33145M1214.45 11.941L1198.07 24.3355M1214.45 11.941L1231.99 -1.33146M1214.45 11.941L1131.93 11.941M1277.87 24.3355L1198.07 24.3355M1277.87 24.3355L1357.67 24.3355M1277.87 24.3355L1259.99 35.9361M1198.07 24.3355L1182.74 35.9361M1198.07 24.3355L1118.28 24.3355M1227.44 57.0435L1154.85 57.0435M1227.44 57.0435L1212.6 66.6717M1227.44 57.0435L1300.04 57.0435M1227.44 57.0435L1243.21 46.8169M1154.85 57.0435L1142.13 66.6717M1154.85 57.0435L1168.36 46.8169M1154.85 57.0435L1082.26 57.0435M1212.6 66.6717L1142.13 66.6717M1212.6 66.6717L1283.07 66.6717M1212.6 66.6717L1198.6 75.7541M1142.13 66.6717L1130.12 75.7541M1142.13 66.6717L1071.65 66.6717M1172.85 92.4545L1108.05 92.4545M1172.85 92.4545L1160.99 100.149M1172.85 92.4545L1237.64 92.4545M1172.85 92.4545L1185.37 84.3343M1108.05 92.4545L1097.89 100.149M1108.05 92.4545L1118.79 84.3343M1108.05 92.4545L1043.26 92.4545M1160.99 100.149L1097.89 100.149M1160.99 100.149L1224.09 100.149M1160.99 100.149L1149.73 107.452M1097.89 100.149L1088.24 107.452M1097.89 100.149L1034.79 100.149M1128.85 120.994L1070.34 120.994M1128.85 120.994L1119.15 127.285M1128.85 120.994L1187.36 120.994M1128.85 120.994L1139.03 114.391M1070.34 120.994L1062.03 127.285M1070.34 120.994L1079.07 114.391M1070.34 120.994L1011.83 120.994M1119.15 127.285L1062.03 127.285M1119.15 127.285L1176.27 127.285M1119.15 127.285L1109.9 133.284M1062.03 127.285L1054.1 133.284M1062.03 127.285L1004.9 127.285M1092.63 144.487L1039.29 144.487M1092.63 144.487L1084.55 149.724M1092.63 144.487L1145.96 144.487M1092.63 144.487L1101.07 139.012M1039.29 144.487L1032.37 149.724M1039.29 144.487L1046.53 139.012M1039.29 144.487L985.959 144.487M1084.55 149.724L1032.37 149.724M1084.55 149.724L1136.73 149.724M1084.55 149.724L1076.82 154.74M1032.37 149.724L1025.74 154.74M1032.37 149.724L980.191 149.724M1062.29 164.161L1013.29 164.161M1062.29 164.161L1055.47 168.59M1062.29 164.161L1111.29 164.161M1062.29 164.161L1069.41 159.549M1013.29 164.161L1014.04 163.595L1019.39 159.549M1013.29 164.161L1007.44 168.59M1013.29 164.161L964.292 164.161M1055.47 168.59L1007.44 168.59M1055.47 168.59L1103.49 168.59M1055.47 168.59L1048.9 172.846M1007.44 168.59L1001.82 172.846M1007.44 168.59L959.415 168.59M1036.52 180.879L991.201 180.879M1036.52 180.879L1030.67 184.673M1036.52 180.879L1081.84 180.879M1036.52 180.879L1042.59 176.94M991.201 180.879L986.187 184.673M991.201 180.879L993.129 179.419L994.431 178.434L996.406 176.94M991.201 180.879L945.882 180.879M1030.67 184.673L986.187 184.673M1030.67 184.673L1075.15 184.673M1030.67 184.673L1025.03 188.33M986.187 184.673L984.353 186.06L983.145 186.974L981.353 188.33M986.187 184.673L941.704 184.673M1014.35 195.26L972.196 195.26M1014.35 195.26L1010.53 197.735L1009.28 198.547M1014.35 195.26L1056.5 195.26M1014.35 195.26L1018.93 192.289L1019.59 191.857M972.196 195.26L968.924 197.735L968.388 198.142L967.852 198.547M972.196 195.26L974.425 193.574L976.693 191.857M972.196 195.26L930.045 195.26M1009.28 198.547L967.852 198.547M1009.28 198.547L1004.38 201.722M1009.28 198.547L1050.71 198.547M967.852 198.547L926.425 198.547M967.852 198.547L963.656 201.722M1060.16 -129.249L946.539 -129.249M1060.16 -129.249L1044.83 -106.043M1060.16 -129.249L1173.79 -129.249M1060.16 -129.249L1077.01 -154.749M946.539 -129.249L936.316 -106.043M946.539 -129.249L957.771 -154.749M946.539 -129.249L832.913 -129.249M1044.83 -106.043L936.316 -106.043M1044.83 -106.043L1153.34 -106.043M1044.83 -106.043L1030.82 -84.835M936.316 -106.043L926.974 -84.835M936.316 -106.043L827.802 -106.043M1006.12 -47.4623L910.511 -47.4623M1006.12 -47.4623L995.187 -30.9128M1006.12 -47.4623L1101.73 -47.4623M1006.12 -47.4623L1017.96 -65.3774M910.511 -47.4623L903.221 -30.9128M910.511 -47.4623L918.403 -65.3774M910.511 -47.4623L814.899 -47.4623M995.187 -30.9128L903.221 -30.9128M995.187 -30.9128L1087.15 -30.9128M995.187 -30.9128L985.055 -15.5792M903.221 -30.9128L896.466 -15.5792M903.221 -30.9128L811.255 -30.9128M966.871 11.941L884.344 11.941M966.871 11.941L958.681 24.3355M966.871 11.941L1049.4 11.941M966.871 11.941L975.641 -1.33148M884.344 11.941L878.884 24.3355M884.344 11.941L890.19 -1.33148M884.344 11.941L801.816 11.941M958.681 24.3355L878.884 24.3355M958.681 24.3355L1038.48 24.3355M958.681 24.3355L951.016 35.9361M878.884 24.3355L873.774 35.9361M878.884 24.3355L799.086 24.3354M937.069 57.0435L864.476 57.0435M937.069 57.0435L930.708 66.6717M937.069 57.0435L1009.66 57.0435M937.069 57.0435L943.827 46.8169M864.476 57.0435L860.235 66.6717M864.476 57.0435L868.981 46.8169M864.476 57.0435L791.883 57.0435M930.708 66.6717L860.235 66.6717M930.708 66.6717L1001.18 66.6717M930.708 66.6717L924.707 75.7541M860.235 66.6717L856.234 75.7541M860.235 66.6717L789.761 66.6717M913.672 92.4545L848.877 92.4545M913.672 92.4545L908.588 100.149M913.672 92.4545L978.466 92.4545M913.672 92.4545L919.037 84.3342M848.877 92.4545L845.488 100.149M848.877 92.4545L852.454 84.3342M848.877 92.4545L784.083 92.4545M908.588 100.149L845.488 100.149M908.588 100.149L971.686 100.149M908.588 100.149L903.762 107.452M845.488 100.149L842.271 107.452M845.488 100.149L782.388 100.149M894.814 120.994L836.306 120.994M894.814 120.994L890.658 127.285M894.814 120.994L953.322 120.994M894.814 120.994L899.176 114.391M836.306 120.994L833.534 127.285M836.306 120.994L839.214 114.391M836.306 120.994L777.797 120.994M890.658 127.285L833.534 127.285M890.658 127.285L947.78 127.285M890.658 127.285L889.149 129.567L886.693 133.284M833.534 127.285L830.892 133.284M833.534 127.285L776.411 127.285M879.291 144.487L825.957 144.487M879.291 144.487L875.83 149.724M879.291 144.487L932.626 144.487M879.291 144.487L881.989 140.403L882.909 139.012M825.957 144.487L825.08 146.478L823.65 149.724M825.957 144.487L828.369 139.012M825.957 144.487L772.622 144.487M875.83 149.724L875.408 150.363L872.516 154.74M875.83 149.724L823.65 149.724M875.83 149.724L928.011 149.724M823.65 149.724L822.81 151.631L822.533 152.259L822.257 152.884L821.44 154.74M823.65 149.724L771.469 149.724M866.291 164.161L817.291 164.161M866.291 164.161L864.813 166.398L864.448 166.95L864.085 167.5L863.724 168.046L863.365 168.59M866.291 164.161L915.292 164.161M866.291 164.161L869.339 159.549M817.291 164.161L815.82 167.5L815.578 168.046L815.34 168.59M817.291 164.161L819.322 159.549M817.291 164.161L768.289 164.161M863.365 168.59L815.34 168.59M863.365 168.59L911.39 168.59M863.365 168.59L861.593 171.27L861.245 171.798L860.552 172.846M815.34 168.59L814.159 171.27L813.926 171.798L813.695 172.324L813.464 172.846M815.34 168.59L767.314 168.59M855.244 180.879L809.926 180.879M855.244 180.879L852.737 184.673M855.244 180.879L900.563 180.879M855.244 180.879L855.886 179.908L856.86 178.434L857.847 176.94M809.926 180.879L810.139 180.395L811.441 177.44L811.661 176.94M809.926 180.879L808.254 184.673M809.926 180.879L764.607 180.879M852.737 184.673L808.254 184.673M852.737 184.673L897.22 184.673M852.737 184.673L850.321 188.33M808.254 184.673L807.643 186.06L807.442 186.518L807.24 186.974L806.644 188.33M808.254 184.673L763.772 184.673M845.742 195.26L803.591 195.26M845.742 195.26L844.106 197.735L843.571 198.547M845.742 195.26L887.893 195.26M845.742 195.26L846.577 193.998L846.856 193.574L847.139 193.147L847.991 191.857M803.591 195.26L803.407 195.677L803.043 196.506L802.68 197.327L802.144 198.547M803.591 195.26L804.334 193.574L804.522 193.147L804.9 192.289L805.09 191.857M803.591 195.26L761.44 195.26M843.571 198.547L802.144 198.547M843.571 198.547L841.731 201.331L841.472 201.722M843.571 198.547L884.998 198.547M802.144 198.547L801.966 198.95L801.789 199.351L801.613 199.75L801.438 200.148L800.917 201.331L800.744 201.722M802.144 198.547L760.716 198.547M605.664 -129.249L492.039 -129.249M605.664 -129.249L610.775 -106.043M605.664 -129.249L719.289 -129.249M605.664 -129.249L600.047 -154.749M492.039 -129.249L502.261 -106.043M492.039 -129.249L480.806 -154.749M492.039 -129.249L378.414 -129.249M610.775 -106.043L502.261 -106.043M610.775 -106.043L719.289 -106.043M610.775 -106.043L615.446 -84.835M502.261 -106.043L511.604 -84.835M502.261 -106.043L393.747 -106.043M623.678 -47.4623L528.066 -47.4623M623.678 -47.4623L627.323 -30.9128M623.678 -47.4623L719.289 -47.4623M623.678 -47.4623L619.731 -65.3774M528.066 -47.4623L535.356 -30.9128M528.066 -47.4623L520.175 -65.3774M528.066 -47.4623L432.455 -47.4623M627.323 -30.9128L535.356 -30.9128M627.323 -30.9128L719.289 -30.9128M627.323 -30.9128L630.7 -15.5792M535.356 -30.9128L542.111 -15.5792M535.356 -30.9128L443.39 -30.9128M636.761 11.941L554.233 11.941M636.761 11.941L639.491 24.3354M636.761 11.941L719.289 11.941M636.761 11.941L633.838 -1.3315M554.233 11.941L559.694 24.3354M554.233 11.941L548.387 -1.33151M554.233 11.941L471.706 11.9409M639.491 24.3354L559.694 24.3354M639.491 24.3354L719.289 24.3354M639.491 24.3354L642.046 35.9361M559.694 24.3354L564.804 35.9361M559.694 24.3354L479.896 24.3354M646.695 57.0435L574.101 57.0435M646.695 57.0435L648.816 66.6716M646.695 57.0435L719.289 57.0435M646.695 57.0435L644.443 46.8169M574.101 57.0435L578.343 66.6716M574.101 57.0435L569.597 46.8169M574.101 57.0435L501.508 57.0434M648.816 66.6716L578.343 66.6716M648.816 66.6716L719.289 66.6717M648.816 66.6716L650.816 75.7541M578.343 66.6716L582.343 75.7541M578.343 66.6716L507.87 66.6716M654.495 92.4545L589.7 92.4544M654.495 92.4545L656.189 100.149M654.495 92.4545L719.289 92.4545M654.495 92.4545L652.706 84.3342M589.7 92.4544L593.089 100.149M589.7 92.4544L586.124 84.3342M589.7 92.4544L524.905 92.4544M656.189 100.149L593.089 100.149M656.189 100.149L719.289 100.149M656.189 100.149L657.798 107.452M593.089 100.149L596.306 107.452M593.089 100.149L529.99 100.149M660.781 120.994L602.272 120.994M660.781 120.994L662.166 127.285M660.781 120.994L719.289 120.994M660.781 120.994L659.326 114.391M602.272 120.994L605.043 127.285M602.272 120.994L599.363 114.391M602.272 120.994L543.764 120.994M662.166 127.285L605.043 127.285M662.166 127.285L719.289 127.285M662.166 127.285L663.487 133.284M605.043 127.285L607.686 133.284M605.043 127.285L547.92 127.285M665.955 144.487L612.62 144.487M665.955 144.487L667.109 149.724M665.955 144.487L719.289 144.487M665.955 144.487L664.749 139.012M612.62 144.487L614.645 149.082L614.928 149.724M612.62 144.487L610.209 139.012M612.62 144.487L559.286 144.487M667.109 149.724L667.248 150.363L668.213 154.74M667.109 149.724L614.928 149.724M667.109 149.724L719.289 149.724M614.928 149.724L615.768 151.631L616.044 152.259L616.32 152.884L617.137 154.74M614.928 149.724L562.748 149.724M670.288 164.161L621.287 164.161M670.288 164.161L671.264 168.59M670.288 164.161L719.289 164.161M670.288 164.161L669.912 162.454L669.785 161.879L669.658 161.301L669.402 160.136L669.272 159.549M621.287 164.161L622.758 167.5L623.239 168.59M621.287 164.161L619.256 159.549M621.287 164.161L572.286 164.161M671.264 168.59L623.239 168.59M671.264 168.59L719.289 168.59M671.264 168.59L672.201 172.846M623.239 168.59L624.418 171.27L624.652 171.798L624.882 172.324L625.113 172.846M623.239 168.59L575.213 168.59M673.97 180.879L628.652 180.879M673.97 180.879L674.806 184.673M673.97 180.879L719.289 180.879M673.97 180.879L673.102 176.94M628.652 180.879L628.438 180.395L627.136 177.44L626.916 176.94M628.652 180.879L630.323 184.673M628.652 180.879L583.333 180.879M674.806 184.673L630.323 184.673M674.806 184.673L719.289 184.673M674.806 184.673L675.611 188.33M630.323 184.673L630.934 186.06L631.136 186.518L631.337 186.974L631.934 188.33M630.323 184.673L585.84 184.673M677.137 195.26L634.986 195.26M677.137 195.26L677.862 198.547M677.137 195.26L719.289 195.26M677.137 195.26L676.388 191.857M634.986 195.26L635.17 195.677L635.536 196.506L635.716 196.918L636.077 197.735L636.255 198.142L636.435 198.547M634.986 195.26L634.243 193.574L634.056 193.147L633.677 192.289L633.487 191.857M634.986 195.26L592.835 195.26M677.862 198.547L677.95 198.95L678.039 199.351L678.126 199.75L678.561 201.722M677.862 198.547L636.435 198.547M677.862 198.547L719.289 198.547M636.435 198.547L595.006 198.547M636.435 198.547L636.788 199.351L636.965 199.75L637.139 200.148L637.66 201.331L637.833 201.722M151.164 -129.249L37.5398 -129.249M151.164 -129.249L176.72 -106.043M151.164 -129.249L264.789 -129.249M151.164 -129.249L123.082 -154.749M37.5398 -129.249L68.2069 -106.043M37.5398 -129.249L3.84122 -154.749M37.5398 -129.249L-76.0856 -129.249M176.72 -106.043L68.2069 -106.043M176.72 -106.043L285.234 -106.043M176.72 -106.043L200.076 -84.835M68.2069 -106.043L96.2332 -84.835M68.2069 -106.043L-40.3076 -106.043M241.233 -47.4623L145.621 -47.4624M241.233 -47.4623L259.458 -30.9128M241.233 -47.4623L336.844 -47.4623M241.233 -47.4623L221.503 -65.3775M145.621 -47.4624L167.492 -30.9128M145.621 -47.4624L121.947 -65.3775M145.621 -47.4624L50.0105 -47.4624M259.458 -30.9128L167.492 -30.9128M259.458 -30.9128L351.424 -30.9128M259.458 -30.9128L276.345 -15.5792M167.492 -30.9128L187.756 -15.5792M167.492 -30.9128L75.5255 -30.9129M306.651 11.9409L224.123 11.9409M306.651 11.9409L320.301 24.3354M306.651 11.9409L389.179 11.9409M306.651 11.9409L292.034 -1.33153M224.123 11.9409L240.502 24.3354M224.123 11.9409L206.584 -1.33154M224.123 11.9409L141.596 11.9409M320.301 24.3354L240.502 24.3354M320.301 24.3354L400.098 24.3354M320.301 24.3354L333.076 35.936M240.502 24.3354L255.834 35.936M240.502 24.3354L160.706 24.3354M356.32 57.0434L283.726 57.0434M356.32 57.0434L366.924 66.6716M356.32 57.0434L428.914 57.0434M356.32 57.0434L345.059 46.8169M283.726 57.0434L296.451 66.6716M283.726 57.0434L270.213 46.8169M283.726 57.0434L211.133 57.0434M366.924 66.6716L296.451 66.6716M366.924 66.6716L437.397 66.6716M366.924 66.6716L376.926 75.7541M296.451 66.6716L308.453 75.754M296.451 66.6716L225.978 66.6716M395.317 92.4544L330.523 92.4544M395.317 92.4544L403.791 100.149M395.317 92.4544L460.111 92.4544M395.317 92.4544L386.375 84.3342M330.523 92.4544L340.691 100.149M330.523 92.4544L319.792 84.3342M330.523 92.4544L265.728 92.4544M403.791 100.149L340.691 100.149M403.791 100.149L466.891 100.149M403.791 100.149L411.833 107.452M340.691 100.149L350.342 107.452M340.691 100.149L277.592 100.149M426.747 120.994L368.239 120.994M426.747 120.994L433.674 127.285M426.747 120.994L485.256 120.994M426.747 120.994L419.475 114.391M368.239 120.994L376.551 127.285M368.239 120.994L359.512 114.391M368.239 120.994L309.731 120.994M433.674 127.285L376.551 127.285M433.674 127.285L490.797 127.285M433.674 127.285L440.281 133.284M376.551 127.285L384.479 133.284M376.551 127.285L319.429 127.285M452.618 144.487L451.879 143.815L451.136 143.141L446.589 139.012M452.618 144.487L399.284 144.487M452.618 144.487L458.386 149.724M452.618 144.487L505.952 144.487M399.284 144.487L406.206 149.724M399.284 144.487L392.049 139.012M399.284 144.487L345.95 144.487M458.386 149.724L406.206 149.724M458.386 149.724L510.567 149.724M458.386 149.724L463.91 154.74M406.206 149.724L412.835 154.74M406.206 149.724L354.025 149.724M474.285 164.161L425.284 164.161M474.285 164.161L479.163 168.59M474.285 164.161L523.286 164.161M474.285 164.161L469.205 159.549M425.284 164.161L428.97 166.95L431.137 168.59M425.284 164.161L419.188 159.549M425.284 164.161L376.283 164.161M479.163 168.59L431.137 168.59M479.163 168.59L527.188 168.59M479.163 168.59L483.273 172.324L483.85 172.846M431.137 168.59L436.762 172.846M431.137 168.59L383.112 168.59M492.695 180.879L447.377 180.879M492.695 180.879L493.755 181.841L496.874 184.673M492.695 180.879L538.014 180.879M492.695 180.879L491.626 179.908L489.457 177.939L488.358 176.94M447.377 180.879L452.391 184.673M447.377 180.879L445.448 179.419L444.147 178.434L442.171 176.94M447.377 180.879L402.058 180.879M496.874 184.673L452.391 184.673M496.874 184.673L541.357 184.673M496.874 184.673L499.908 187.429L500.901 188.33M452.391 184.673L454.224 186.06L455.432 186.974L457.224 188.33M452.391 184.673L407.908 184.673M508.533 195.26L466.381 195.26M508.533 195.26L510.81 197.327L512.152 198.547M508.533 195.26L550.684 195.26M508.533 195.26L504.785 191.857M466.381 195.26L469.654 197.735L470.19 198.142L470.725 198.547M466.381 195.26L464.152 193.574L461.884 191.857M466.381 195.26L424.231 195.26M512.152 198.547L470.725 198.547M512.152 198.547L513.915 200.148L514.786 200.938L515.219 201.331L515.649 201.722M512.152 198.547L553.579 198.547M470.725 198.547L429.297 198.547M470.725 198.547L474.921 201.722M-108.407 -30.9129L-16.4407 -30.9129M-108.407 -30.9129L-78.0117 -15.5793M-108.407 -30.9129L-135.962 -30.9129M-108.407 -30.9129L-135.962 -44.8138M-23.4591 11.9409L-105.986 11.9409M-23.4591 11.9409L1.10971 24.3354M-23.4591 11.9409L59.0681 11.9409M-23.4591 11.9409L-49.7688 -1.33156M-105.986 11.9409L-78.6879 24.3354M-105.986 11.9409L-135.22 -1.33157M-105.986 11.9409L-135.962 11.9409M1.10971 24.3354L-78.6879 24.3354M1.10971 24.3354L80.9073 24.3354M1.10971 24.3354L24.1061 35.936M-78.6879 24.3354L-53.1364 35.936M-78.6879 24.3354L-135.962 24.3354M65.9457 57.0434L-6.64813 57.0434M65.9457 57.0434L85.0321 66.6716M65.9457 57.0434L138.54 57.0434M65.9457 57.0434L45.6746 46.8168M-6.64813 57.0434L14.5586 66.6716M-6.64813 57.0434L-29.1715 46.8168M-6.64813 57.0434L-79.242 57.0434M85.0321 66.6716L14.5586 66.6716M85.0321 66.6716L155.505 66.6716M85.0321 66.6716L103.035 75.754M14.5586 66.6716L34.5625 75.754M14.5586 66.6716L-55.9141 66.6716M136.14 92.4544L71.3454 92.4544M136.14 92.4544L151.392 100.149M136.14 92.4544L200.934 92.4544M136.14 92.4544L120.044 84.3342M71.3454 92.4544L88.2937 100.149M71.3454 92.4544L53.4609 84.3342M71.3454 92.4544L6.5504 92.4544M151.392 100.149L88.2937 100.149M151.392 100.149L214.492 100.149M151.392 100.149L165.868 107.452M88.2937 100.149L104.378 107.452M88.2937 100.149L25.194 100.149M192.714 120.994L134.205 120.994M192.714 120.994L205.182 127.285M192.714 120.994L251.222 120.994M192.714 120.994L179.625 114.391M134.205 120.994L148.06 127.285M134.205 120.994L119.662 114.391M134.205 120.994L75.6974 120.994M205.182 127.285L148.06 127.285M205.182 127.285L262.305 127.285M205.182 127.285L217.075 133.284M148.06 127.285L161.273 133.284M148.06 127.285L90.9368 127.285M239.281 144.487L185.947 144.487M239.281 144.487L249.664 149.724M239.281 144.487L292.616 144.487M239.281 144.487L228.429 139.012M185.947 144.487L197.484 149.724M185.947 144.487L173.889 139.012M185.947 144.487L132.613 144.487M249.664 149.724L197.484 149.724M249.664 149.724L301.844 149.724M249.664 149.724L259.607 154.74M197.484 149.724L208.532 154.74M197.484 149.724L145.303 149.724M278.282 164.161L229.282 164.161M278.282 164.161L287.062 168.59M278.282 164.161L327.283 164.161M278.282 164.161L269.138 159.548M229.282 164.161L239.036 168.59M229.282 164.161L219.121 159.548M229.282 164.161L180.28 164.161M287.062 168.59L239.036 168.59M287.062 168.59L335.087 168.59M287.062 168.59L295.499 172.846M239.036 168.59L248.411 172.846M239.036 168.59L191.011 168.59M311.421 180.879L266.103 180.879M311.421 180.879L318.942 184.673M311.421 180.879L356.74 180.879M311.421 180.879L309.496 179.908L308.528 179.419L303.612 176.94M266.103 180.879L274.459 184.673M266.103 180.879L257.426 176.94M266.103 180.879L220.784 180.879M318.942 184.673L274.459 184.673M318.942 184.673L363.425 184.673M318.942 184.673L326.191 188.33M274.459 184.673L282.513 188.33M274.459 184.673L229.977 184.673M339.928 195.26L297.777 195.26M339.928 195.26L346.443 198.547M339.928 195.26L382.079 195.26M339.928 195.26L333.181 191.856M297.777 195.26L303.23 197.735L304.124 198.142L305.016 198.547M297.777 195.26L290.281 191.856M297.777 195.26L255.626 195.26M346.443 198.547L305.016 198.547M346.443 198.547L351.962 201.331L352.738 201.722M346.443 198.547L387.87 198.547M305.016 198.547L263.588 198.547M305.016 198.547L312.009 201.722M-123.038 92.4544L-101.005 100.149M-123.038 92.4544L-58.2437 92.4544M-123.038 92.4544L-135.962 87.9405M-123.038 92.4544L-135.962 92.4544M-101.005 100.149L-37.9057 100.149M-101.005 100.149L-80.0963 107.452M-101.005 100.149L-135.962 100.149M-41.3196 120.994L-99.8286 120.994M-41.3196 120.994L-23.3085 127.285M-41.3196 120.994L17.1884 120.994M-41.3196 120.994L-60.226 114.391M-99.8286 120.994L-80.4322 127.285M-99.8286 120.994L-120.189 114.391M-99.8286 120.994L-135.962 120.994M-23.3085 127.285L-80.4322 127.285M-23.3085 127.285L33.8141 127.285M-23.3085 127.285L-6.13136 133.284M-80.4322 127.285L-61.933 133.284M-80.4322 127.285L-135.962 127.285M25.945 144.487L-27.3897 144.487M25.945 144.487L40.9422 149.724M25.945 144.487L79.2788 144.487M25.945 144.487L10.2689 139.012M-27.3897 144.487L-11.238 149.724M-27.3897 144.487L-44.2702 139.012M-27.3897 144.487L-80.7235 144.487M40.9422 149.724L-11.238 149.724M40.9422 149.724L93.1231 149.724M40.9422 149.724L55.305 154.74M-11.238 149.724L4.22867 154.74M-11.238 149.724L-63.419 149.724M82.2792 164.161L33.2787 164.161M82.2792 164.161L94.9611 168.59M82.2792 164.161L131.28 164.161M82.2792 164.161L69.0719 159.548M33.2787 164.161L46.9351 168.59M33.2787 164.161L19.0549 159.548M33.2787 164.161L-15.7227 164.161M94.9611 168.59L46.9351 168.59M94.9611 168.59L142.986 168.59M94.9611 168.59L107.147 172.846M46.9351 168.59L60.0597 172.846M46.9351 168.59L-1.08989 168.59M130.147 180.879L84.8281 180.879M130.147 180.879L141.01 184.673M130.147 180.879L175.465 180.879M130.147 180.879L118.867 176.94M84.8281 180.879L96.5272 184.673M84.8281 180.879L72.6809 176.94M84.8281 180.879L39.5096 180.879M141.01 184.673L96.5272 184.673M141.01 184.673L185.494 184.673M141.01 184.673L151.481 188.33M96.5272 184.673L107.803 188.33M96.5272 184.673L52.0443 184.673M171.323 195.26L129.172 195.26M171.323 195.26L180.734 198.547M171.323 195.26L213.475 195.26M171.323 195.26L161.579 191.856M129.172 195.26L139.307 198.547M129.172 195.26L118.677 191.856M129.172 195.26L87.0205 195.26M180.734 198.547L139.307 198.547M180.734 198.547L189.826 201.722M180.734 198.547L222.161 198.547M139.307 198.547L97.8786 198.547M139.307 198.547L149.098 201.722M-113.724 164.161L-97.1399 168.59M-113.724 164.161L-64.7232 164.161M-113.724 164.161L-130.995 159.548M-113.724 164.161L-135.962 164.161M-97.1399 168.59L-49.1149 168.59M-97.1399 168.59L-81.2037 172.846M-97.1399 168.59L-135.962 168.59M-51.1274 180.879L-96.4459 180.879M-51.1274 180.879L-36.9213 184.673M-51.1274 180.879L-5.80892 180.879M-51.1274 180.879L-65.8778 176.94M-96.4459 180.879L-81.4042 184.673M-96.4459 180.879L-112.064 176.94M-96.4459 180.879L-135.962 180.879M-36.9213 184.673L-81.4042 184.673M-36.9213 184.673L7.56155 184.673M-36.9213 184.673L-23.2293 188.33M-81.4042 184.673L-66.9068 188.33M-81.4042 184.673L-125.887 184.673M2.71867 195.26L-39.4327 195.26M2.71867 195.26L15.0245 198.547M2.71867 195.26L44.87 195.26M2.71867 195.26L-10.0245 191.856M-39.4327 195.26L-26.4026 198.547M-39.4327 195.26L-52.9252 191.856M-39.4327 195.26L-81.5842 195.26M15.0245 198.547L-26.4026 198.547M15.0245 198.547L26.9142 201.722M15.0245 198.547L56.4515 198.547M-26.4026 198.547L-67.8307 198.547M-26.4026 198.547L-13.8135 201.722M-52.9252 191.856L-66.9068 188.33M-52.9252 191.856L-95.8267 191.856M-52.9252 191.856L-10.0245 191.856M-81.5842 195.26L-67.8307 198.547M-81.5842 195.26L-95.8267 191.856M-81.5842 195.26L-123.735 195.26M-67.8307 198.547L-109.258 198.547M-67.8307 198.547L-54.5413 201.722M-13.8135 201.722L26.9142 201.722M-13.8135 201.722L-54.5413 201.722M-13.8135 201.722L-1.64224 204.792M-95.8267 191.856L-110.585 188.33M-95.8267 191.856L-135.962 191.856M-123.735 195.26L-109.258 198.547M-123.735 195.26L-135.962 192.484M-123.735 195.26L-135.962 195.26M-109.258 198.547L-95.269 201.722M-109.258 198.547L-135.962 198.547M-54.5413 201.722L-95.269 201.722M-54.5413 201.722L-41.6938 204.792M-95.269 201.722L-81.7453 204.792M-95.269 201.722L-135.962 201.722M-66.9068 188.33L-110.585 188.33M-66.9068 188.33L-23.2293 188.33M-125.887 184.673L-110.585 188.33M-125.887 184.673L-135.962 182.266M-125.887 184.673L-135.962 184.673M-110.585 188.33L-135.962 188.33M-23.2293 188.33L20.4482 188.33M-23.2293 188.33L-10.0245 191.856M-10.0245 191.856L32.876 191.856M-112.064 176.94L-128.292 172.846M-112.064 176.94L-65.8778 176.94M-112.064 176.94L-135.962 176.94M-136.1 180.879L-135.962 180.879M-128.292 172.846L-81.2037 172.846M-128.292 172.846L-135.962 170.912M-128.292 172.846L-135.962 172.846M-81.2037 172.846L-34.116 172.846M-81.2037 172.846L-65.8778 176.94M-65.8778 176.94L-19.6916 176.94M118.677 191.856L107.803 188.33M118.677 191.856L75.7767 191.856M118.677 191.856L161.579 191.856M87.0205 195.26L97.8786 198.547M87.0205 195.26L75.7767 191.856M87.0205 195.26L44.87 195.26M97.8786 198.547L56.4515 198.547M97.8786 198.547L108.371 201.722M149.098 201.722L108.371 201.722M149.098 201.722L158.565 204.792M149.098 201.722L189.826 201.722M75.7767 191.856L64.1256 188.33M75.7767 191.856L32.876 191.856M44.87 195.26L56.4515 198.547M44.87 195.26L32.876 191.856M56.4515 198.547L67.642 201.722M108.371 201.722L67.642 201.722M108.371 201.722L118.513 204.792M32.876 191.856L20.4482 188.33M26.9142 201.722L67.642 201.722M26.9142 201.722L38.4102 204.792M67.642 201.722L78.4618 204.792M107.803 188.33L64.1256 188.33M107.803 188.33L151.481 188.33M52.0443 184.673L64.1256 188.33M52.0443 184.673L39.5096 180.879M52.0443 184.673L7.56155 184.673M64.1256 188.33L20.4482 188.33M151.481 188.33L195.158 188.33M151.481 188.33L161.579 191.856M20.4482 188.33L7.56155 184.673M161.579 191.856L204.479 191.856M39.5096 180.879L26.4946 176.94M39.5096 180.879L-5.80892 180.879M7.56155 184.673L-5.80892 180.879M-5.80892 180.879L-19.6916 176.94M72.6809 176.94L60.0597 172.846M72.6809 176.94L26.4946 176.94M72.6809 176.94L118.867 176.94M26.4946 176.94L12.9719 172.846M26.4946 176.94L-19.6916 176.94M-19.6916 176.94L-34.116 172.846M60.0597 172.846L12.9719 172.846M60.0597 172.846L107.147 172.846M-1.08989 168.59L12.9719 172.846M-1.08989 168.59L-15.7227 164.161M-1.08989 168.59L-49.1149 168.59M12.9719 172.846L-34.116 172.846M107.147 172.846L154.235 172.846M107.147 172.846L118.867 176.94M-34.116 172.846L-49.1149 168.59M118.867 176.94L165.053 176.94M-15.7227 164.161L-30.9622 159.548M-15.7227 164.161L-64.7232 164.161M-49.1149 168.59L-64.7232 164.161M-64.7232 164.161L-80.9783 159.548M19.0549 159.548L4.22867 154.74M19.0549 159.548L-30.9622 159.548M19.0549 159.548L69.0719 159.548M-30.9622 159.548L-46.8467 154.74M-30.9622 159.548L-80.9783 159.548M-80.9783 159.548L-97.9221 154.74M-80.9783 159.548L-130.995 159.548M-130.995 159.548L-135.962 159.548M-130.995 159.548L-135.962 158.222M4.22867 154.74L-46.8467 154.74M4.22867 154.74L55.305 154.74M-63.419 149.724L-46.8467 154.74M-63.419 149.724L-80.7235 144.487M-63.419 149.724L-115.599 149.724M-46.8467 154.74L-97.9221 154.74M55.305 154.74L106.38 154.74M55.305 154.74L69.0719 159.548M-97.9221 154.74L-115.599 149.724M-97.9221 154.74L-135.962 154.74M69.0719 159.548L119.088 159.548M-80.7235 144.487L-98.8103 139.012M-80.7235 144.487L-134.057 144.487M-115.599 149.724L-134.057 144.487M-115.599 149.724L-135.962 149.724M-136.229 154.74L-135.962 154.74M-134.057 144.487L-135.962 143.946M-134.057 144.487L-135.962 144.487M-44.2702 139.012L-61.933 133.284M-44.2702 139.012L-98.8103 139.012M-44.2702 139.012L10.2689 139.012M-98.8103 139.012L-117.735 133.284M-98.8103 139.012L-135.962 139.012M-136.423 143.815L-135.962 143.946M-61.933 133.284L-117.735 133.284M-61.933 133.284L-6.13136 133.284M-117.735 133.284L-135.962 133.284M-117.735 133.284L-135.962 127.767M-6.13136 133.284L49.6702 133.284M-6.13136 133.284L10.2689 139.012M10.2689 139.012L64.8089 139.012M-120.189 114.391L-60.226 114.391M-120.189 114.391L-135.962 109.276M-120.189 114.391L-135.962 114.391M-136.396 120.994L-135.962 120.994M-60.226 114.391L-0.263164 114.391M-60.226 114.391L-80.0963 107.452M-136.136 109.22L-135.962 109.276M290.281 191.856L282.513 188.33M290.281 191.856L247.38 191.856M290.281 191.856L333.181 191.856M255.626 195.26L263.588 198.547M255.626 195.26L247.38 191.856M255.626 195.26L213.475 195.26M263.588 198.547L222.161 198.547M263.588 198.547L271.282 201.722M312.009 201.722L271.282 201.722M312.009 201.722L314.572 202.885L318.772 204.792M312.009 201.722L352.738 201.722M247.38 191.856L238.836 188.33M247.38 191.856L204.479 191.856M213.475 195.26L222.161 198.547M213.475 195.26L204.479 191.856M222.161 198.547L230.554 201.722M271.282 201.722L230.554 201.722M271.282 201.722L278.72 204.792M204.479 191.856L195.158 188.33M189.826 201.722L198.617 204.792M189.826 201.722L230.554 201.722M230.554 201.722L231.583 202.112L233.629 202.885L238.668 204.792M282.513 188.33L238.836 188.33M282.513 188.33L326.191 188.33M229.977 184.673L238.836 188.33M229.977 184.673L220.784 180.879M229.977 184.673L185.494 184.673M238.836 188.33L195.158 188.33M326.191 188.33L369.868 188.33M326.191 188.33L333.181 191.856M195.158 188.33L185.494 184.673M333.181 191.856L376.083 191.857M220.784 180.879L211.239 176.94M220.784 180.879L175.465 180.879M185.494 184.673L184.26 184.207L175.465 180.879M175.465 180.879L165.053 176.94M257.426 176.94L256.318 176.436L248.411 172.846M257.426 176.94L211.239 176.94M257.426 176.94L303.612 176.94M211.239 176.94L201.323 172.846M211.239 176.94L165.053 176.94M165.053 176.94L154.235 172.846M248.411 172.846L201.323 172.846M248.411 172.846L295.499 172.846M191.011 168.59L201.323 172.846M191.011 168.59L180.28 164.161M191.011 168.59L142.986 168.59M201.323 172.846L154.235 172.846M295.499 172.846L342.586 172.846M295.499 172.846L303.612 176.94M154.235 172.846L142.986 168.59M303.612 176.94L349.798 176.94M180.28 164.161L169.105 159.548M180.28 164.161L131.28 164.161M142.986 168.59L131.28 164.161M131.28 164.161L119.088 159.548M219.121 159.548L208.532 154.74M219.121 159.548L169.105 159.548M219.121 159.548L269.138 159.548M169.105 159.548L157.456 154.74M169.105 159.548L119.088 159.548M119.088 159.548L106.38 154.74M208.532 154.74L157.456 154.74M208.532 154.74L259.607 154.74M145.303 149.724L157.456 154.74M145.303 149.724L132.613 144.487M145.303 149.724L93.1231 149.724M157.456 154.74L106.38 154.74M259.607 154.74L310.683 154.74M259.607 154.74L269.138 159.548M106.38 154.74L93.1231 149.724M269.138 159.548L319.155 159.548M132.613 144.487L119.349 139.012M132.613 144.487L79.2788 144.487M93.1231 149.724L79.2788 144.487M79.2788 144.487L64.8089 139.012M173.889 139.012L161.273 133.284M173.889 139.012L119.349 139.012M173.889 139.012L228.429 139.012M119.349 139.012L105.472 133.284M119.349 139.012L64.8089 139.012M64.8089 139.012L49.6702 133.284M161.273 133.284L105.472 133.284M161.273 133.284L217.075 133.284M90.9368 127.285L105.472 133.284M90.9368 127.285L75.6974 120.994M90.9368 127.285L33.8141 127.285M105.472 133.284L49.6702 133.284M217.075 133.284L272.876 133.284M217.075 133.284L228.429 139.012M49.6702 133.284L33.8141 127.285M228.429 139.012L282.969 139.012M75.6974 120.994L59.6997 114.391M75.6974 120.994L17.1884 120.994M33.8141 127.285L17.1884 120.994M17.1884 120.994L-0.263164 114.391M119.662 114.391L104.378 107.452M119.662 114.391L59.6997 114.391M119.662 114.391L179.625 114.391M59.6997 114.391L42.8861 107.452M59.6997 114.391L-0.263164 114.391M-0.263164 114.391L-18.6047 107.452M104.378 107.452L42.8861 107.452M104.378 107.452L165.868 107.452M25.194 100.149L42.8861 107.452M25.194 100.149L6.5504 92.4544M25.194 100.149L-37.9057 100.149M42.8861 107.452L-18.6047 107.452M165.868 107.452L227.36 107.452M165.868 107.452L179.625 114.391M-18.6047 107.452L-37.9057 100.149M-18.6047 107.452L-80.0963 107.452M179.625 114.391L239.587 114.391M6.5504 92.4544L-13.1213 84.3342M6.5504 92.4544L-58.2437 92.4544M-37.9057 100.149L-58.2437 92.4544M-80.0963 107.452L-135.962 107.452M-58.2437 92.4544L-79.7044 84.3342M53.4609 84.3342L34.5625 75.754M53.4609 84.3342L-13.1213 84.3342M53.4609 84.3342L120.044 84.3342M-13.1213 84.3342L-33.9101 75.754M-13.1213 84.3342L-79.7044 84.3342M-79.7044 84.3342L-102.383 75.754M-79.7044 84.3342L-135.962 84.3342M34.5625 75.754L-33.9101 75.754M34.5625 75.754L103.035 75.754M-55.9141 66.6716L-33.9101 75.754M-55.9141 66.6716L-79.242 57.0434M-55.9141 66.6716L-126.387 66.6716M-33.9101 75.754L-102.383 75.754M103.035 75.754L171.508 75.754M103.035 75.754L120.044 84.3342M-102.383 75.754L-126.387 66.6716M-102.383 75.754L-135.962 75.754M120.044 84.3342L186.627 84.3342M-79.242 57.0434L-104.017 46.8168M-79.242 57.0434L-135.962 57.0434M-126.387 66.6716L-135.962 66.6716M-126.387 66.6716L-135.962 63.049M-29.1715 46.8168L-53.1364 35.936M-29.1715 46.8168L-104.017 46.8168M-29.1715 46.8168L45.6746 46.8168M-104.017 46.8168L-130.379 35.936M-104.017 46.8168L-135.962 46.8168M-53.1364 35.936L-130.379 35.936M-53.1364 35.936L24.1061 35.936M-130.379 35.936L-135.962 33.6317M-130.379 35.936L-135.962 35.936M24.1061 35.936L101.349 35.936M24.1061 35.936L45.6746 46.8168M45.6746 46.8168L120.521 46.8168M-135.22 -1.33157L-49.7688 -1.33156M-135.22 -1.33157L-135.962 -1.33157M-135.22 -1.33157L-135.962 -1.6685M-49.7688 -1.33156L35.6815 -1.33155M-49.7688 -1.33156L-78.0117 -15.5793M461.884 191.857L460.156 190.549L459.575 190.109L457.224 188.33M461.884 191.857L418.983 191.857M461.884 191.857L504.785 191.857M424.231 195.26L428.047 197.735L429.297 198.547M424.231 195.26L419.649 192.289L418.983 191.857M424.231 195.26L382.079 195.26M429.297 198.547L387.87 198.547M429.297 198.547L434.194 201.722M474.921 201.722L434.194 201.722M474.921 201.722L476.459 202.885L478.978 204.792M474.921 201.722L515.649 201.722M418.983 191.857L417.642 190.987L413.546 188.33M418.983 191.857L376.083 191.857M382.079 195.26L387.87 198.547M382.079 195.26L376.083 191.857M387.87 198.547L392.085 200.938L393.466 201.722M434.194 201.722L393.466 201.722M434.194 201.722L438.927 204.792M376.083 191.857L369.868 188.33M352.738 201.722L353.51 202.112L358.824 204.792M352.738 201.722L393.466 201.722M393.466 201.722L395.516 202.885L398.875 204.792M457.224 188.33L413.546 188.33M457.224 188.33L500.901 188.33M407.908 184.673L413.546 188.33M407.908 184.673L402.058 180.879M407.908 184.673L363.425 184.673M413.546 188.33L369.868 188.33M500.901 188.33L544.579 188.33M500.901 188.33L504.785 191.857M369.868 188.33L363.425 184.673M504.785 191.857L547.685 191.857M402.058 180.879L398.29 178.434L397.525 177.939L395.985 176.94M402.058 180.879L356.74 180.879M363.425 184.673L356.74 180.879M356.74 180.879L349.798 176.94M442.171 176.94L436.762 172.846M442.171 176.94L395.985 176.94M442.171 176.94L488.358 176.94M395.985 176.94L389.674 172.846M395.985 176.94L349.798 176.94M349.798 176.94L342.586 172.846M436.762 172.846L389.674 172.846M436.762 172.846L483.85 172.846M383.112 168.59L387.244 171.27L388.057 171.798L389.674 172.846M383.112 168.59L376.283 164.161M383.112 168.59L335.087 168.59M389.674 172.846L342.586 172.846M483.85 172.846L530.938 172.846M483.85 172.846L488.358 176.94M342.586 172.846L335.087 168.59M488.358 176.94L534.544 176.94M376.283 164.161L369.171 159.549M376.283 164.161L327.283 164.161M335.087 168.59L327.283 164.161M327.283 164.161L319.155 159.548M419.188 159.549L416.044 157.17L415.249 156.567L412.835 154.74M419.188 159.549L369.171 159.549M419.188 159.549L469.205 159.549M369.171 159.549L361.759 154.74M369.171 159.549L319.155 159.548M319.155 159.548L310.683 154.74M412.835 154.74L361.759 154.74M412.835 154.74L463.91 154.74M354.025 149.724L361.759 154.74M354.025 149.724L345.95 144.487M354.025 149.724L301.844 149.724M361.759 154.74L310.683 154.74M463.91 154.74L514.986 154.74M463.91 154.74L465.255 155.961L469.205 159.549M310.683 154.74L301.844 149.724M469.205 159.549L519.221 159.549M345.95 144.487L337.509 139.012M345.95 144.487L292.616 144.487M301.844 149.724L292.616 144.487M292.616 144.487L282.969 139.012M392.049 139.012L384.479 133.284M392.049 139.012L337.509 139.012M392.049 139.012L446.589 139.012M337.509 139.012L328.678 133.284M337.509 139.012L282.969 139.012M282.969 139.012L272.876 133.284M384.479 133.284L328.678 133.284M384.479 133.284L440.281 133.284M319.429 127.285L328.678 133.284M319.429 127.285L309.731 120.994M319.429 127.285L262.305 127.285M328.678 133.284L272.876 133.284M440.281 133.284L496.083 133.284M440.281 133.284L446.589 139.012M272.876 133.284L262.305 127.285M446.589 139.012L501.128 139.012M309.731 120.994L299.55 114.391M309.731 120.994L251.222 120.994M262.305 127.285L251.222 120.994M251.222 120.994L239.587 114.391M359.512 114.391L350.342 107.452M359.512 114.391L299.55 114.391M359.512 114.391L419.475 114.391M299.55 114.391L288.851 107.452M299.55 114.391L239.587 114.391M239.587 114.391L227.36 107.452M350.342 107.452L288.851 107.452M350.342 107.452L411.833 107.452M277.592 100.149L288.851 107.452M277.592 100.149L265.728 92.4544M277.592 100.149L214.492 100.149M288.851 107.452L227.36 107.452M411.833 107.452L473.324 107.452M411.833 107.452L419.475 114.391M227.36 107.452L214.492 100.149M419.475 114.391L479.438 114.391M265.728 92.4544L253.209 84.3342M265.728 92.4544L200.934 92.4544M214.492 100.149L200.934 92.4544M200.934 92.4544L186.627 84.3342M319.792 84.3342L308.453 75.754M319.792 84.3342L253.209 84.3342M319.792 84.3342L386.375 84.3342M253.209 84.3342L239.98 75.754M253.209 84.3342L186.627 84.3342M186.627 84.3342L171.508 75.754M308.453 75.754L239.98 75.754M308.453 75.754L376.926 75.7541M225.978 66.6716L239.98 75.754M225.978 66.6716L211.133 57.0434M225.978 66.6716L155.505 66.6716M239.98 75.754L171.508 75.754M376.926 75.7541L445.398 75.7541M376.926 75.7541L386.375 84.3342M171.508 75.754L155.505 66.6716M386.375 84.3342L452.957 84.3342M211.133 57.0434L195.367 46.8168M211.133 57.0434L138.54 57.0434M155.505 66.6716L138.54 57.0434M138.54 57.0434L120.521 46.8168M270.213 46.8169L255.834 35.936M270.213 46.8169L195.367 46.8168M270.213 46.8169L345.059 46.8169M195.367 46.8168L178.591 35.936M195.367 46.8168L120.521 46.8168M120.521 46.8168L101.349 35.936M255.834 35.936L178.591 35.936M255.834 35.936L333.076 35.936M160.706 24.3354L178.591 35.936M160.706 24.3354L141.596 11.9409M160.706 24.3354L80.9073 24.3354M178.591 35.936L101.349 35.936M333.076 35.936L410.319 35.936M333.076 35.936L345.059 46.8169M101.349 35.936L80.9073 24.3354M345.059 46.8169L419.905 46.8169M141.596 11.9409L121.133 -1.33155M141.596 11.9409L59.0681 11.9409M80.9073 24.3354L59.0681 11.9409M59.0681 11.9409L35.6815 -1.33155M206.584 -1.33154L187.756 -15.5792M206.584 -1.33154L121.133 -1.33155M206.584 -1.33154L292.034 -1.33153M121.133 -1.33155L99.1669 -15.5792M121.133 -1.33155L35.6815 -1.33155M35.6815 -1.33155L10.5772 -15.5793M187.756 -15.5792L99.1669 -15.5792M187.756 -15.5792L276.345 -15.5792M75.5255 -30.9129L99.1669 -15.5792M75.5255 -30.9129L50.0105 -47.4624M75.5255 -30.9129L-16.4407 -30.9129M99.1669 -15.5792L10.5772 -15.5793M276.345 -15.5792L364.933 -15.5792M276.345 -15.5792L292.034 -1.33153M10.5772 -15.5793L-16.4407 -30.9129M10.5772 -15.5793L-78.0117 -15.5793M292.034 -1.33153L377.485 -1.33153M50.0105 -47.4624L22.3894 -65.3775M50.0105 -47.4624L-45.6004 -47.4624M-16.4407 -30.9129L-45.6004 -47.4624M-78.0117 -15.5793L-135.962 -15.5793M-45.6004 -47.4624L-77.168 -65.3775M-45.6004 -47.4624L-135.962 -47.4624M121.947 -65.3775L96.2332 -84.835M121.947 -65.3775L22.3894 -65.3775M121.947 -65.3775L221.503 -65.3775M22.3894 -65.3775L-7.60937 -84.835M22.3894 -65.3775L-77.168 -65.3775M-77.168 -65.3775L-111.452 -84.835M-77.168 -65.3775L-135.962 -65.3775M96.2332 -84.835L-7.60937 -84.835M96.2332 -84.835L200.076 -84.835M-40.3076 -106.043L-7.60937 -84.835M-40.3076 -106.043L-76.0856 -129.249M-40.3076 -106.043L-135.962 -106.043M-7.60937 -84.835L-111.452 -84.835M200.076 -84.835L303.918 -84.835M200.076 -84.835L221.503 -65.3775M-111.452 -84.835L-135.962 -84.8351M-111.452 -84.835L-135.962 -98.7455M221.503 -65.3775L321.061 -65.3775M-76.0856 -129.249L-115.4 -154.749M-76.0856 -129.249L-135.962 -129.249M3.84122 -154.749L-33.3622 -182.901M3.84122 -154.749L-115.4 -154.749M3.84122 -154.749L123.082 -154.749M-115.4 -154.749L-135.962 -168.086M-115.4 -154.749L-135.962 -154.749M-33.3622 -182.901L92.08 -182.901M-33.3622 -182.901L-135.962 -182.901M92.08 -182.901L217.521 -182.901M92.08 -182.901L123.082 -154.749M123.082 -154.749L242.323 -154.749M633.487 191.857L633.296 191.423L633.104 190.987L632.911 190.549L632.718 190.109L632.131 188.778L631.934 188.33M633.487 191.857L590.586 191.857M633.487 191.857L676.388 191.857M592.835 195.26L594.471 197.735L595.006 198.547M592.835 195.26L591.438 193.147L590.586 191.857M592.835 195.26L550.684 195.26M595.006 198.547L553.579 198.547M595.006 198.547L596.587 200.938L597.105 201.722M637.833 201.722L638.004 202.112L638.683 203.653L639.186 204.792M637.833 201.722L597.105 201.722M637.833 201.722L678.561 201.722M590.586 191.857L590.3 191.423L590.011 190.987L589.723 190.549L589.431 190.109L588.256 188.33M590.586 191.857L547.685 191.857M550.684 195.26L552.865 197.735L553.579 198.547M550.684 195.26L547.685 191.857M553.579 198.547L554.991 200.148L556.033 201.331L556.377 201.722M597.105 201.722L597.362 202.112L597.873 202.885L598.381 203.653L598.632 204.035L599.134 204.792M597.105 201.722L556.377 201.722M547.685 191.857L545.365 189.224L544.579 188.33M515.649 201.722L518.195 204.035L519.03 204.792M515.649 201.722L556.377 201.722M556.377 201.722L558.748 204.414L559.082 204.792M631.934 188.33L588.256 188.33M631.934 188.33L675.611 188.33M585.84 184.673L588.256 188.33M585.84 184.673L583.333 180.879M585.84 184.673L541.357 184.673M588.256 188.33L544.579 188.33M675.611 188.33L719.289 188.33M675.611 188.33L676.388 191.857M544.579 188.33L541.357 184.673M676.388 191.857L719.289 191.857M583.333 180.879L582.691 179.908L581.717 178.434L580.73 176.94M583.333 180.879L538.014 180.879M541.357 184.673L540.946 184.207L538.014 180.879M538.014 180.879L537.588 180.395L537.159 179.908L536.728 179.419L534.544 176.94M626.916 176.94L625.113 172.846M626.916 176.94L580.73 176.94M626.916 176.94L673.102 176.94M580.73 176.94L578.025 172.846M580.73 176.94L534.544 176.94M534.544 176.94L531.853 173.885L531.395 173.367L530.938 172.846M625.113 172.846L578.025 172.846M625.113 172.846L672.201 172.846M575.213 168.59L574.854 168.046L574.492 167.5L574.13 166.95L572.286 164.161M575.213 168.59L576.633 170.74L576.984 171.27L577.332 171.798L578.025 172.846M575.213 168.59L527.188 168.59M578.025 172.846L530.938 172.846M672.201 172.846L719.289 172.846M672.201 172.846L673.102 176.94M530.938 172.846L527.188 168.59M673.102 176.94L719.289 176.94M572.286 164.161L569.626 160.136L569.239 159.549M572.286 164.161L523.286 164.161M527.188 168.59L526.227 167.5L523.286 164.161M523.286 164.161L521.781 162.454L519.221 159.549M619.256 159.549L618.207 157.17L617.942 156.567L617.137 154.74M619.256 159.549L569.239 159.549M619.256 159.549L669.272 159.549M569.239 159.549L566.062 154.74M569.239 159.549L519.221 159.549M519.221 159.549L514.986 154.74M617.137 154.74L566.062 154.74M617.137 154.74L668.213 154.74M562.748 149.724L566.062 154.74M562.748 149.724L559.286 144.487M562.748 149.724L510.567 149.724M566.062 154.74L514.986 154.74M668.213 154.74L719.289 154.74M668.213 154.74L668.482 155.961L669.011 158.365L669.272 159.549M514.986 154.74L510.567 149.724M669.272 159.549L719.289 159.549M559.286 144.487L556.589 140.403L555.669 139.012M559.286 144.487L505.952 144.487M510.567 149.724L505.952 144.487M505.952 144.487L503.568 141.78L501.128 139.012M610.209 139.012L607.686 133.284M610.209 139.012L555.669 139.012M610.209 139.012L664.749 139.012M555.669 139.012L551.884 133.284M555.669 139.012L501.128 139.012M501.128 139.012L496.083 133.284M607.686 133.284L551.884 133.284M607.686 133.284L663.487 133.284M547.92 127.285L548.929 128.811L551.884 133.284M547.92 127.285L543.764 120.994M547.92 127.285L490.797 127.285M551.884 133.284L496.083 133.284M663.487 133.284L719.289 133.284M663.487 133.284L664.749 139.012M496.083 133.284L490.797 127.285M664.749 139.012L719.289 139.012M543.764 120.994L539.401 114.391M543.764 120.994L485.256 120.994M490.797 127.285L485.256 120.994M485.256 120.994L479.438 114.391M599.363 114.391L596.306 107.452M599.363 114.391L539.401 114.391M599.363 114.391L659.326 114.391M539.401 114.391L534.816 107.452M539.401 114.391L479.438 114.391M479.438 114.391L473.324 107.452M596.306 107.452L534.816 107.452M596.306 107.452L657.798 107.452M529.99 100.149L534.816 107.452M529.99 100.149L524.905 92.4544M529.99 100.149L466.891 100.149M534.816 107.452L473.324 107.452M657.798 107.452L719.289 107.452M657.798 107.452L659.14 113.543L659.326 114.391M473.324 107.452L466.891 100.149M659.326 114.391L719.289 114.391M524.905 92.4544L519.54 84.3342M524.905 92.4544L460.111 92.4544M466.891 100.149L461.84 94.4161L460.111 92.4544M460.111 92.4544L452.957 84.3342M586.124 84.3342L582.343 75.7541M586.124 84.3342L519.54 84.3342M586.124 84.3342L652.706 84.3342M519.54 84.3342L513.871 75.7541M519.54 84.3342L452.957 84.3342M452.957 84.3342L445.398 75.7541M582.343 75.7541L513.871 75.7541M582.343 75.7541L650.816 75.7541M507.87 66.6716L513.871 75.7541M507.87 66.6716L501.508 57.0434M507.87 66.6716L437.397 66.6716M513.871 75.7541L445.398 75.7541M650.816 75.7541L719.289 75.7541M650.816 75.7541L652.706 84.3342M445.398 75.7541L437.397 66.6716M652.706 84.3342L719.289 84.3342M501.508 57.0434L494.751 46.8169M501.508 57.0434L428.914 57.0434M437.397 66.6716L428.914 57.0434M428.914 57.0434L419.905 46.8169M569.597 46.8169L564.804 35.9361M569.597 46.8169L494.751 46.8169M569.597 46.8169L644.443 46.8169M494.751 46.8169L487.561 35.936M494.751 46.8169L419.905 46.8169M419.905 46.8169L410.319 35.936M564.804 35.9361L487.561 35.936M564.804 35.9361L642.046 35.9361M479.896 24.3354L487.561 35.936M479.896 24.3354L471.706 11.9409M479.896 24.3354L400.098 24.3354M487.561 35.936L410.319 35.936M642.046 35.9361L719.289 35.9361M642.046 35.9361L644.443 46.8169M410.319 35.936L400.098 24.3354M644.443 46.8169L719.289 46.8169M471.706 11.9409L462.936 -1.33152M471.706 11.9409L389.179 11.9409M400.098 24.3354L389.179 11.9409M389.179 11.9409L377.485 -1.33153M548.387 -1.33151L542.111 -15.5792M548.387 -1.33151L462.936 -1.33152M548.387 -1.33151L633.838 -1.3315M462.936 -1.33152L453.522 -15.5792M462.936 -1.33152L377.485 -1.33153M377.485 -1.33153L364.933 -15.5792M542.111 -15.5792L453.522 -15.5792M542.111 -15.5792L630.7 -15.5792M443.39 -30.9128L453.522 -15.5792M443.39 -30.9128L432.455 -47.4623M443.39 -30.9128L351.424 -30.9128M453.522 -15.5792L364.933 -15.5792M630.7 -15.5792L719.289 -15.5792M630.7 -15.5792L633.838 -1.3315M364.933 -15.5792L351.424 -30.9128M633.838 -1.3315L719.289 -1.3315M432.455 -47.4623L420.617 -65.3774M432.455 -47.4623L336.844 -47.4623M351.424 -30.9128L336.844 -47.4623M336.844 -47.4623L321.061 -65.3775M520.175 -65.3774L511.604 -84.835M520.175 -65.3774L420.617 -65.3774M520.175 -65.3774L619.731 -65.3774M420.617 -65.3774L407.761 -84.835M420.617 -65.3774L321.061 -65.3775M321.061 -65.3775L303.918 -84.835M511.604 -84.835L407.761 -84.835M511.604 -84.835L615.446 -84.835M393.747 -106.043L407.761 -84.835M393.747 -106.043L378.414 -129.249M393.747 -106.043L285.234 -106.043M407.761 -84.835L303.918 -84.835M615.446 -84.835L719.289 -84.835M615.446 -84.835L619.731 -65.3774M303.918 -84.835L285.234 -106.043M619.731 -65.3774L719.289 -65.3774M378.414 -129.249L361.565 -154.749M378.414 -129.249L264.789 -129.249M285.234 -106.043L264.789 -129.249M264.789 -129.249L242.323 -154.749M480.806 -154.749L468.405 -182.901M480.806 -154.749L361.565 -154.749M480.806 -154.749L600.047 -154.749M361.565 -154.749L342.963 -182.901M361.565 -154.749L242.323 -154.749M242.323 -154.749L217.521 -182.901M342.963 -182.901L468.405 -182.901M342.963 -182.901L217.521 -182.901M468.405 -182.901L593.847 -182.901M593.847 -182.901L719.289 -182.901M593.847 -182.901L600.047 -154.749M600.047 -154.749L719.289 -154.749M805.09 191.857L805.281 191.423L805.473 190.987L805.666 190.549L805.86 190.109L806.25 189.224L806.447 188.778L806.644 188.33M805.09 191.857L762.189 191.857M805.09 191.857L847.991 191.857M761.44 195.26L760.716 198.547M761.44 195.26L762.189 191.857M761.44 195.26L719.289 195.26M760.716 198.547L760.628 198.95L760.538 199.351L760.451 199.75L760.016 201.722M760.716 198.547L719.289 198.547M800.744 201.722L800.573 202.112L799.894 203.653L799.392 204.792M800.744 201.722L760.016 201.722M800.744 201.722L841.472 201.722M762.189 191.857L762.285 191.423L762.381 190.987L762.478 190.549L762.966 188.33M762.189 191.857L719.289 191.857M719.289 195.26L719.289 198.547M719.289 195.26L719.289 191.857M719.289 198.547L719.289 201.722M760.016 201.722L719.289 201.722M760.016 201.722L759.761 202.885L759.675 203.27L759.34 204.792M719.289 191.857L719.289 188.33M678.561 201.722L678.817 202.885L678.902 203.27L678.986 203.653L679.07 204.035L679.153 204.414L679.237 204.792M678.561 201.722L719.289 201.722M719.289 201.722L719.289 204.792M806.644 188.33L762.966 188.33M806.644 188.33L850.321 188.33M763.772 184.673L763.875 184.207L763.977 183.738L764.607 180.879M763.772 184.673L762.966 188.33M763.772 184.673L719.289 184.673M762.966 188.33L719.289 188.33M850.321 188.33L893.999 188.33M850.321 188.33L849.731 189.224L849.437 189.667L849.146 190.109L848.855 190.549L848.566 190.987L848.277 191.423L847.991 191.857M719.289 188.33L719.289 184.673M847.991 191.857L890.892 191.857M764.607 180.879L765.475 176.94M764.607 180.879L719.289 180.879M719.289 184.673L719.289 180.879M719.289 180.879L719.289 176.94M811.661 176.94L813.464 172.846M811.661 176.94L765.475 176.94M811.661 176.94L857.847 176.94M765.475 176.94L766.376 172.846M765.475 176.94L719.289 176.94M719.289 176.94L719.289 172.846M813.464 172.846L766.376 172.846M813.464 172.846L860.552 172.846M767.314 168.59L766.376 172.846M767.314 168.59L768.289 164.161M767.314 168.59L719.289 168.59M766.376 172.846L719.289 172.846M860.552 172.846L907.64 172.846M860.552 172.846L857.847 176.94M719.289 172.846L719.289 168.59M857.847 176.94L904.034 176.94M768.289 164.161L768.665 162.454L769.047 160.72L769.306 159.549M768.289 164.161L719.289 164.161M719.289 168.59L719.289 164.161M719.289 164.161L719.289 159.549M819.322 159.549L820.37 157.17L820.635 156.567L821.44 154.74M819.322 159.549L769.306 159.549M819.322 159.549L869.339 159.549M769.306 159.549L769.566 158.365L770.095 155.961L770.364 154.74M769.306 159.549L719.289 159.549M719.289 159.549L719.289 154.74M821.44 154.74L770.364 154.74M821.44 154.74L872.516 154.74M771.469 149.724L771.329 150.363L770.364 154.74M771.469 149.724L772.622 144.487M771.469 149.724L719.289 149.724M770.364 154.74L719.289 154.74M872.516 154.74L923.591 154.74M872.516 154.74L869.339 159.549M719.289 154.74L719.289 149.724M869.339 159.549L919.356 159.549M772.622 144.487L773.829 139.012M772.622 144.487L719.289 144.487M719.289 149.724L719.289 144.487M719.289 144.487L719.289 139.012M828.369 139.012L830.892 133.284M828.369 139.012L773.829 139.012M828.369 139.012L882.909 139.012M773.829 139.012L775.09 133.284M773.829 139.012L719.289 139.012M719.289 139.012L719.289 133.284M830.892 133.284L775.09 133.284M830.892 133.284L886.693 133.284M776.411 127.285L775.09 133.284M776.411 127.285L777.797 120.994M776.411 127.285L719.289 127.285M775.09 133.284L719.289 133.284M886.693 133.284L942.495 133.284M886.693 133.284L882.909 139.012M719.289 133.284L719.289 127.285M882.909 139.012L937.449 139.012M777.797 120.994L779.252 114.391M777.797 120.994L719.289 120.994M719.289 127.285L719.289 120.994M719.289 120.994L719.289 114.391M839.214 114.391L842.271 107.452M839.214 114.391L779.252 114.391M839.214 114.391L899.176 114.391M779.252 114.391L780.779 107.452M779.252 114.391L719.289 114.391M719.289 114.391L719.289 107.452M842.271 107.452L780.779 107.452M842.271 107.452L903.762 107.452M782.388 100.149L780.779 107.452M782.388 100.149L784.083 92.4545M782.388 100.149L719.289 100.149M780.779 107.452L719.289 107.452M903.762 107.452L965.253 107.452M903.762 107.452L899.176 114.391M719.289 107.452L719.289 100.149M899.176 114.391L959.139 114.391M784.083 92.4545L785.872 84.3342M784.083 92.4545L719.289 92.4545M719.289 100.149L719.289 92.4545M719.289 92.4545L719.289 84.3342M852.454 84.3342L856.234 75.7541M852.454 84.3342L785.872 84.3342M852.454 84.3342L919.037 84.3342M785.872 84.3342L787.761 75.7541M785.872 84.3342L719.289 84.3342M719.289 84.3342L719.289 75.7541M856.234 75.7541L787.761 75.7541M856.234 75.7541L924.707 75.7541M789.761 66.6717L787.761 75.7541M789.761 66.6717L791.883 57.0435M789.761 66.6717L719.289 66.6717M787.761 75.7541L719.289 75.7541M924.707 75.7541L993.179 75.7541M924.707 75.7541L919.037 84.3342M719.289 75.7541L719.289 66.6717M919.037 84.3342L985.62 84.3343M791.883 57.0435L794.135 46.8169M791.883 57.0435L719.289 57.0435M719.289 66.6717L719.289 57.0435M719.289 57.0435L719.289 46.8169M868.981 46.8169L873.774 35.9361M868.981 46.8169L794.135 46.8169M868.981 46.8169L943.827 46.8169M794.135 46.8169L796.531 35.9361M794.135 46.8169L719.289 46.8169M719.289 46.8169L719.289 35.9361M873.774 35.9361L796.531 35.9361M873.774 35.9361L951.016 35.9361M799.086 24.3354L796.531 35.9361M799.086 24.3354L801.816 11.941M799.086 24.3354L719.289 24.3354M796.531 35.9361L719.289 35.9361M951.016 35.9361L1028.26 35.9361M951.016 35.9361L943.827 46.8169M719.289 35.9361L719.289 24.3354M943.827 46.8169L1018.67 46.8169M801.816 11.941L804.74 -1.33149M801.816 11.941L719.289 11.941M719.289 24.3354L719.289 11.941M719.289 11.941L719.289 -1.3315M890.19 -1.33148L896.466 -15.5792M890.19 -1.33148L804.74 -1.33149M890.19 -1.33148L975.641 -1.33148M804.74 -1.33149L807.878 -15.5792M804.74 -1.33149L719.289 -1.3315M719.289 -1.3315L719.289 -15.5792M896.466 -15.5792L807.878 -15.5792M896.466 -15.5792L985.055 -15.5792M811.255 -30.9128L807.878 -15.5792M811.255 -30.9128L814.899 -47.4623M811.255 -30.9128L719.289 -30.9128M807.878 -15.5792L719.289 -15.5792M985.055 -15.5792L1073.64 -15.5792M985.055 -15.5792L975.641 -1.33148M719.289 -15.5792L719.289 -30.9128M975.641 -1.33148L1061.09 -1.33147M814.899 -47.4623L818.846 -65.3774M814.899 -47.4623L719.289 -47.4623M719.289 -30.9128L719.289 -47.4623M719.289 -47.4623L719.289 -65.3774M918.403 -65.3774L926.974 -84.835M918.403 -65.3774L818.846 -65.3774M918.403 -65.3774L1017.96 -65.3774M818.846 -65.3774L823.131 -84.835M818.846 -65.3774L719.289 -65.3774M719.289 -65.3774L719.289 -84.835M926.974 -84.835L823.131 -84.835M926.974 -84.835L1030.82 -84.835M827.802 -106.043L823.131 -84.835M827.802 -106.043L832.913 -129.249M827.802 -106.043L719.289 -106.043M823.131 -84.835L719.289 -84.835M1030.82 -84.835L1134.66 -84.8349M1030.82 -84.835L1017.96 -65.3774M719.289 -84.835L719.289 -106.043M1017.96 -65.3774L1117.52 -65.3774M832.913 -129.249L838.53 -154.749M832.913 -129.249L719.289 -129.249M719.289 -106.043L719.289 -129.249M719.289 -129.249L719.289 -154.749M957.771 -154.749L970.172 -182.901M957.771 -154.749L838.53 -154.749M957.771 -154.749L1077.01 -154.749M838.53 -154.749L844.731 -182.901M838.53 -154.749L719.289 -154.749M719.289 -154.749L719.289 -182.901M844.731 -182.901L970.172 -182.901M844.731 -182.901L719.289 -182.901M970.172 -182.901L1095.61 -182.901M1095.61 -182.901L1221.06 -182.901M1095.61 -182.901L1077.01 -154.749M1077.01 -154.749L1196.25 -154.749M976.693 191.857L979.002 190.109L981.353 188.33M976.693 191.857L933.793 191.857M976.693 191.857L1019.59 191.857M930.045 195.26L926.425 198.547M930.045 195.26L933.793 191.857M930.045 195.26L887.893 195.26M926.425 198.547L884.998 198.547M926.425 198.547L923.792 200.938L922.928 201.722M963.656 201.722L922.928 201.722M963.656 201.722L962.118 202.885L959.599 204.792M963.656 201.722L1004.38 201.722M933.793 191.857L937.676 188.33M933.793 191.857L890.892 191.857M887.893 195.26L884.998 198.547M887.893 195.26L890.892 191.857M884.998 198.547L883.587 200.148L882.544 201.331L882.201 201.722M922.928 201.722L882.201 201.722M922.928 201.722L920.382 204.035L919.547 204.792M890.892 191.857L893.212 189.224L893.999 188.33M841.472 201.722L841.215 202.112L840.704 202.885L839.945 204.035L839.443 204.792M841.472 201.722L882.201 201.722M882.201 201.722L881.858 202.112L881.175 202.885L879.496 204.792M981.353 188.33L937.676 188.33M981.353 188.33L1025.03 188.33M941.704 184.673L941.191 185.138L940.683 185.6L938.669 187.429L937.676 188.33M941.704 184.673L944.823 181.841L945.882 180.879M941.704 184.673L897.22 184.673M937.676 188.33L893.999 188.33M1025.03 188.33L1068.71 188.33M1025.03 188.33L1020.94 190.987L1019.59 191.857M893.999 188.33L897.22 184.673M1019.59 191.857L1062.5 191.857M945.882 180.879L946.415 180.395L946.951 179.908L948.573 178.434L949.12 177.939L950.22 176.94M945.882 180.879L900.563 180.879M897.22 184.673L897.632 184.207L900.563 180.879M900.563 180.879L900.989 180.395L901.419 179.908L901.849 179.419L904.034 176.94M996.406 176.94L1001.82 172.846M996.406 176.94L950.22 176.94M996.406 176.94L1042.59 176.94M950.22 176.94L954.728 172.846M950.22 176.94L904.034 176.94M904.034 176.94L907.64 172.846M1001.82 172.846L954.728 172.846M1001.82 172.846L1048.9 172.846M959.415 168.59L954.728 172.846M959.415 168.59L964.292 164.161M959.415 168.59L911.39 168.59M954.728 172.846L907.64 172.846M1048.9 172.846L1095.99 172.846M1048.9 172.846L1042.59 176.94M907.64 172.846L911.39 168.59M1042.59 176.94L1088.78 176.94M964.292 164.161L969.372 159.549M964.292 164.161L915.292 164.161M911.39 168.59L912.351 167.5L915.292 164.161M915.292 164.161L916.796 162.454L918.324 160.72L919.356 159.549M1019.39 159.549L1022.53 157.17L1025.74 154.74M1019.39 159.549L969.372 159.549M1019.39 159.549L1069.41 159.549M969.372 159.549L974.667 154.74M969.372 159.549L919.356 159.549M919.356 159.549L923.591 154.74M1025.74 154.74L974.667 154.74M1025.74 154.74L1076.82 154.74M980.191 149.724L974.667 154.74M980.191 149.724L985.959 144.487M980.191 149.724L928.011 149.724M974.667 154.74L923.591 154.74M1076.82 154.74L1127.89 154.74M1076.82 154.74L1069.41 159.549M923.591 154.74L928.011 149.724M1069.41 159.549L1119.42 159.549M985.959 144.487L987.442 143.141L991.988 139.012M985.959 144.487L932.626 144.487M928.011 149.724L932.626 144.487M932.626 144.487L933.216 143.815L935.01 141.78L937.449 139.012M1046.53 139.012L1054.1 133.284M1046.53 139.012L991.988 139.012M1046.53 139.012L1101.07 139.012M991.988 139.012L998.296 133.284M991.988 139.012L937.449 139.012M937.449 139.012L942.495 133.284M1054.1 133.284L998.296 133.284M1054.1 133.284L1109.9 133.284M1004.9 127.285L1000.74 131.067L998.296 133.284M1004.9 127.285L1011.83 120.994M1004.9 127.285L947.78 127.285M998.296 133.284L942.495 133.284M1109.9 133.284L1165.7 133.284M1109.9 133.284L1101.07 139.012M942.495 133.284L947.78 127.285M1101.07 139.012L1155.61 139.012M1011.83 120.994L1019.1 114.391M1011.83 120.994L953.322 120.994M947.78 127.285L953.322 120.994M953.322 120.994L959.139 114.391M1079.07 114.391L1088.24 107.452M1079.07 114.391L1019.1 114.391M1079.07 114.391L1139.03 114.391M1019.1 114.391L1026.74 107.452M1019.1 114.391L959.139 114.391M959.139 114.391L965.253 107.452M1088.24 107.452L1026.74 107.452M1088.24 107.452L1149.73 107.452M1034.79 100.149L1026.74 107.452M1034.79 100.149L1043.26 92.4545M1034.79 100.149L971.686 100.149M1026.74 107.452L965.253 107.452M1149.73 107.452L1211.22 107.452M1149.73 107.452L1139.03 114.391M965.253 107.452L971.686 100.149M1139.03 114.391L1198.99 114.391M1043.26 92.4545L1052.2 84.3343M1043.26 92.4545L978.466 92.4545M971.686 100.149L978.466 92.4545M978.466 92.4545L985.62 84.3343M1118.79 84.3343L1130.12 75.7541M1118.79 84.3343L1052.2 84.3343M1118.79 84.3343L1185.37 84.3343M1052.2 84.3343L1061.65 75.7541M1052.2 84.3343L985.62 84.3343M985.62 84.3343L993.179 75.7541M1130.12 75.7541L1061.65 75.7541M1130.12 75.7541L1198.6 75.7541M1071.65 66.6717L1061.65 75.7541M1071.65 66.6717L1082.26 57.0435M1071.65 66.6717L1001.18 66.6717M1061.65 75.7541L993.179 75.7541M1198.6 75.7541L1267.07 75.7541M1198.6 75.7541L1185.37 84.3343M993.179 75.7541L1001.18 66.6717M1185.37 84.3343L1251.95 84.3343M1082.26 57.0435L1093.52 46.8169M1082.26 57.0435L1009.66 57.0435M1001.18 66.6717L1009.66 57.0435M1009.66 57.0435L1018.67 46.8169M1168.36 46.8169L1182.74 35.9361M1168.36 46.8169L1093.52 46.8169M1168.36 46.8169L1243.21 46.8169M1093.52 46.8169L1105.5 35.9361M1093.52 46.8169L1018.67 46.8169M1018.67 46.8169L1028.26 35.9361M1182.74 35.9361L1105.5 35.9361M1182.74 35.9361L1259.99 35.9361M1118.28 24.3355L1105.5 35.9361M1118.28 24.3355L1131.93 11.941M1118.28 24.3355L1038.48 24.3355M1105.5 35.9361L1028.26 35.9361M1259.99 35.9361L1337.23 35.9361M1259.99 35.9361L1243.21 46.8169M1028.26 35.9361L1038.48 24.3355M1243.21 46.8169L1318.06 46.8169M1131.93 11.941L1146.54 -1.33146M1131.93 11.941L1049.4 11.941M1038.48 24.3355L1049.4 11.941M1049.4 11.941L1061.09 -1.33147M1231.99 -1.33146L1250.82 -15.5792M1231.99 -1.33146L1146.54 -1.33146M1231.99 -1.33146L1317.44 -1.33145M1146.54 -1.33146L1162.23 -15.5792M1146.54 -1.33146L1061.09 -1.33147M1061.09 -1.33147L1073.64 -15.5792M1250.82 -15.5792L1162.23 -15.5792M1250.82 -15.5792L1339.41 -15.5791M1179.12 -30.9128L1162.23 -15.5792M1179.12 -30.9128L1197.34 -47.4623M1179.12 -30.9128L1087.15 -30.9128M1162.23 -15.5792L1073.64 -15.5792M1339.41 -15.5791L1428 -15.5791M1339.41 -15.5791L1317.44 -1.33145M1073.64 -15.5792L1087.15 -30.9128M1317.44 -1.33145L1402.9 -1.33144M1197.34 -47.4623L1217.07 -65.3774M1197.34 -47.4623L1101.73 -47.4623M1087.15 -30.9128L1101.73 -47.4623M1101.73 -47.4623L1117.52 -65.3774M1316.63 -65.3774L1342.34 -84.8349M1316.63 -65.3774L1217.07 -65.3774M1316.63 -65.3774L1416.19 -65.3774M1217.07 -65.3774L1238.5 -84.8349M1217.07 -65.3774L1117.52 -65.3774M1117.52 -65.3774L1134.66 -84.8349M1342.34 -84.8349L1238.5 -84.8349M1342.34 -84.8349L1446.19 -84.8349M1261.86 -106.043L1238.5 -84.8349M1261.86 -106.043L1287.41 -129.249M1261.86 -106.043L1153.34 -106.043M1238.5 -84.8349L1134.66 -84.8349M1446.19 -84.8349L1550.03 -84.8349M1446.19 -84.8349L1416.19 -65.3774M1134.66 -84.8349L1153.34 -106.043M1416.19 -65.3774L1515.74 -65.3774M1287.41 -129.249L1315.49 -154.749M1287.41 -129.249L1173.79 -129.249M1153.34 -106.043L1173.79 -129.249M1173.79 -129.249L1196.25 -154.749M1434.74 -154.749L1471.94 -182.901M1434.74 -154.749L1315.49 -154.749M1434.74 -154.749L1553.98 -154.749M1315.49 -154.749L1346.5 -182.901M1315.49 -154.749L1196.25 -154.749M1196.25 -154.749L1221.06 -182.901M1346.5 -182.901L1471.94 -182.901M1346.5 -182.901L1221.06 -182.901M1471.94 -182.901L1574.54 -182.901M1553.98 -154.749L1574.54 -168.086M1553.98 -154.749L1574.54 -154.749M1148.3 191.857L1156.06 188.33M1148.3 191.857L1105.4 191.857M1148.3 191.857L1191.2 191.857M1098.65 195.26L1092.13 198.547M1098.65 195.26L1105.4 191.857M1098.65 195.26L1056.5 195.26M1092.13 198.547L1050.71 198.547M1092.13 198.547L1085.84 201.722M1126.57 201.722L1085.84 201.722M1126.57 201.722L1124 202.885L1119.81 204.792M1126.57 201.722L1167.3 201.722M1105.4 191.857L1112.39 188.33M1105.4 191.857L1062.5 191.857M1056.5 195.26L1050.71 198.547M1056.5 195.26L1062.5 191.857M1050.71 198.547L1046.49 200.938L1045.11 201.722M1085.84 201.722L1085.07 202.112L1079.75 204.792M1085.84 201.722L1045.11 201.722M1062.5 191.857L1068.71 188.33M1004.38 201.722L999.651 204.792M1004.38 201.722L1045.11 201.722M1045.11 201.722L1043.06 202.885L1039.7 204.792M1156.06 188.33L1112.39 188.33M1156.06 188.33L1199.74 188.33M1119.64 184.673L1112.39 188.33M1119.64 184.673L1127.16 180.879M1119.64 184.673L1075.15 184.673M1112.39 188.33L1068.71 188.33M1199.74 188.33L1243.42 188.33M1199.74 188.33L1191.2 191.857M1068.71 188.33L1075.15 184.673M1191.2 191.857L1234.1 191.857M1127.16 180.879L1129.08 179.908L1134.97 176.94M1127.16 180.879L1081.84 180.879M1075.15 184.673L1081.84 180.879M1081.84 180.879L1088.78 176.94M1181.15 176.94L1182.26 176.437L1190.17 172.846M1181.15 176.94L1134.97 176.94M1181.15 176.94L1227.34 176.94M1134.97 176.94L1143.08 172.846M1134.97 176.94L1088.78 176.94M1088.78 176.94L1089.66 176.437L1095.99 172.846M1190.17 172.846L1143.08 172.846M1190.17 172.846L1237.25 172.846M1151.52 168.59L1143.08 172.846M1151.52 168.59L1160.3 164.161M1151.52 168.59L1103.49 168.59M1143.08 172.846L1095.99 172.846M1237.25 172.846L1284.34 172.846M1237.25 172.846L1227.34 176.94M1095.99 172.846L1103.49 168.59M1227.34 176.94L1273.52 176.94M1160.3 164.161L1169.44 159.549M1160.3 164.161L1111.29 164.161M1103.49 168.59L1111.29 164.161M1111.29 164.161L1119.42 159.549M1219.46 159.549L1230.05 154.74M1219.46 159.549L1169.44 159.549M1219.46 159.549L1269.47 159.549M1169.44 159.549L1178.97 154.74M1169.44 159.549L1119.42 159.549M1119.42 159.549L1127.89 154.74M1230.05 154.74L1178.97 154.74M1230.05 154.74L1281.12 154.74M1188.91 149.724L1178.97 154.74M1188.91 149.724L1199.3 144.487M1188.91 149.724L1136.73 149.724M1178.97 154.74L1127.89 154.74M1281.12 154.74L1332.2 154.74M1281.12 154.74L1269.47 159.549M1127.89 154.74L1136.73 149.724M1269.47 159.549L1319.49 159.549M1199.3 144.487L1210.15 139.012M1199.3 144.487L1145.96 144.487M1136.73 149.724L1145.96 144.487M1145.96 144.487L1155.61 139.012M1264.69 139.012L1277.3 133.284M1264.69 139.012L1210.15 139.012M1264.69 139.012L1319.23 139.012M1210.15 139.012L1221.5 133.284M1210.15 139.012L1155.61 139.012M1155.61 139.012L1165.7 133.284M1277.3 133.284L1221.5 133.284M1277.3 133.284L1333.11 133.284M1233.4 127.285L1221.5 133.284M1233.4 127.285L1245.86 120.994M1233.4 127.285L1176.27 127.285M1221.5 133.284L1165.7 133.284M1333.11 133.284L1388.91 133.284M1333.11 133.284L1319.23 139.012M1165.7 133.284L1176.27 127.285M1319.23 139.012L1373.77 139.012M1245.86 120.994L1258.95 114.391M1245.86 120.994L1187.36 120.994M1176.27 127.285L1187.36 120.994M1187.36 120.994L1198.99 114.391M1318.92 114.391L1334.2 107.452M1318.92 114.391L1258.95 114.391M1318.92 114.391L1378.88 114.391M1258.95 114.391L1272.71 107.452M1258.95 114.391L1198.99 114.391M1198.99 114.391L1211.22 107.452M1334.2 107.452L1272.71 107.452M1334.2 107.452L1395.69 107.452M1287.18 100.149L1272.71 107.452M1287.18 100.149L1302.44 92.4545M1287.18 100.149L1224.09 100.149M1272.71 107.452L1211.22 107.452M1395.69 107.452L1457.18 107.452M1395.69 107.452L1378.88 114.391M1211.22 107.452L1224.09 100.149M1378.88 114.391L1438.84 114.391M1302.44 92.4545L1318.53 84.3343M1302.44 92.4545L1237.64 92.4545M1224.09 100.149L1237.64 92.4545M1237.64 92.4545L1251.95 84.3343M1385.12 84.3343L1404.01 75.7541M1385.12 84.3343L1318.53 84.3343M1385.12 84.3343L1451.7 84.3343M1318.53 84.3343L1335.54 75.7541M1318.53 84.3343L1251.95 84.3343M1251.95 84.3343L1267.07 75.7541M1404.01 75.7541L1335.54 75.7541M1404.01 75.7541L1472.49 75.7541M1353.55 66.6717L1335.54 75.7541M1353.55 66.6717L1372.63 57.0435M1353.55 66.6717L1283.07 66.6717M1335.54 75.7541L1267.07 75.7541M1472.49 75.7541L1540.96 75.7541M1472.49 75.7541L1451.7 84.3343M1267.07 75.7541L1283.07 66.6717M1451.7 84.3343L1518.28 84.3343M1372.63 57.0435L1392.9 46.8169M1372.63 57.0435L1300.04 57.0435M1283.07 66.6717L1300.04 57.0435M1300.04 57.0435L1318.06 46.8169M1467.75 46.817L1491.71 35.9361M1467.75 46.817L1392.9 46.8169M1467.75 46.817L1542.59 46.817M1392.9 46.8169L1414.47 35.9361M1392.9 46.8169L1318.06 46.8169M1318.06 46.8169L1337.23 35.9361M1491.71 35.9361L1414.47 35.9361M1491.71 35.9361L1568.96 35.9361M1437.47 24.3355L1414.47 35.9361M1437.47 24.3355L1462.04 11.941M1437.47 24.3355L1357.67 24.3355M1414.47 35.9361L1337.23 35.9361M1568.96 35.9361L1542.59 46.817M1568.96 35.9361L1574.54 35.9361M1568.96 35.9361L1574.54 33.6318M1337.23 35.9361L1357.67 24.3355M1542.59 46.817L1574.54 46.817M1462.04 11.941L1488.35 -1.33144M1462.04 11.941L1379.51 11.941M1357.67 24.3355L1379.51 11.941M1379.51 11.941L1402.9 -1.33144M1573.8 -1.33143L1488.35 -1.33144M1573.8 -1.33143L1574.54 -1.33143M1573.8 -1.33143L1574.54 -1.66836M1488.35 -1.33144L1516.59 -15.5791M1488.35 -1.33144L1402.9 -1.33144M1402.9 -1.33144L1428 -15.5791M1546.98 -30.9127L1516.59 -15.5791M1546.98 -30.9127L1455.02 -30.9127M1546.98 -30.9127L1574.54 -30.9127M1546.98 -30.9127L1574.54 -44.8137M1516.59 -15.5791L1428 -15.5791M1516.59 -15.5791L1574.54 -15.5791M1428 -15.5791L1455.02 -30.9127M1455.02 -30.9127L1484.18 -47.4622M1484.18 -47.4622L1515.74 -65.3774M1484.18 -47.4622L1574.54 -47.4622M1515.74 -65.3774L1550.03 -84.8349M1515.74 -65.3774L1574.54 -65.3774M1550.03 -84.8349L1574.54 -84.8349M1550.03 -84.8349L1574.54 -98.7453M1319.9 191.857L1330.77 188.33M1319.9 191.857L1277 191.857M1319.9 191.857L1362.8 191.857M1267.25 195.26L1257.84 198.547M1267.25 195.26L1277 191.857M1267.25 195.26L1225.1 195.26M1257.84 198.547L1216.42 198.547M1257.84 198.547L1248.75 201.722M1289.48 201.722L1248.75 201.722M1289.48 201.722L1280.01 204.792M1289.48 201.722L1330.21 201.722M1277 191.857L1287.1 188.33M1277 191.857L1234.1 191.857M1225.1 195.26L1216.42 198.547M1225.1 195.26L1234.1 191.857M1216.42 198.547L1208.02 201.722M1248.75 201.722L1247.64 202.112L1239.96 204.792M1248.75 201.722L1208.02 201.722M1234.1 191.857L1243.42 188.33M1167.3 201.722L1159.86 204.792M1167.3 201.722L1208.02 201.722M1208.02 201.722L1206.99 202.112L1199.91 204.792M1330.77 188.33L1287.1 188.33M1330.77 188.33L1374.45 188.33M1297.57 184.673L1287.1 188.33M1297.57 184.673L1308.43 180.879M1297.57 184.673L1253.08 184.673M1287.1 188.33L1243.42 188.33M1374.45 188.33L1418.13 188.33M1374.45 188.33L1362.8 191.857M1243.42 188.33L1253.08 184.673M1362.8 191.857L1405.7 191.857M1308.43 180.879L1319.71 176.94M1308.43 180.879L1263.11 180.879M1253.08 184.673L1254.32 184.207L1263.11 180.879M1263.11 180.879L1273.52 176.94M1365.9 176.94L1378.52 172.846M1365.9 176.94L1319.71 176.94M1365.9 176.94L1412.08 176.94M1319.71 176.94L1331.43 172.846M1319.71 176.94L1273.52 176.94M1273.52 176.94L1284.34 172.846M1378.52 172.846L1331.43 172.846M1378.52 172.846L1425.61 172.847M1343.62 168.59L1331.43 172.846M1343.62 168.59L1356.3 164.161M1343.62 168.59L1295.59 168.59M1331.43 172.846L1284.34 172.846M1425.61 172.847L1472.69 172.847M1425.61 172.847L1412.08 176.94M1284.34 172.846L1295.59 168.59M1412.08 176.94L1458.27 176.94M1356.3 164.161L1369.51 159.549M1356.3 164.161L1307.3 164.161M1295.59 168.59L1307.3 164.161M1307.3 164.161L1319.49 159.549M1419.52 159.549L1434.35 154.74M1419.52 159.549L1369.51 159.549M1419.52 159.549L1469.54 159.549M1369.51 159.549L1383.27 154.74M1369.51 159.549L1319.49 159.549M1319.49 159.549L1332.2 154.74M1434.35 154.74L1383.27 154.74M1434.35 154.74L1485.42 154.74M1397.64 149.724L1383.27 154.74M1397.64 149.724L1412.63 144.487M1397.64 149.724L1345.45 149.724M1383.27 154.74L1332.2 154.74M1485.42 154.74L1536.5 154.74M1485.42 154.74L1469.54 159.549M1332.2 154.74L1345.45 149.724M1469.54 159.549L1519.56 159.549M1412.63 144.487L1428.31 139.012M1412.63 144.487L1359.3 144.487M1345.45 149.724L1359.3 144.487M1359.3 144.487L1373.77 139.012M1482.85 139.012L1500.51 133.284M1482.85 139.012L1428.31 139.012M1482.85 139.012L1537.39 139.012M1428.31 139.012L1444.71 133.284M1428.31 139.012L1373.77 139.012M1373.77 139.012L1388.91 133.284M1500.51 133.284L1444.71 133.284M1461.89 127.285L1444.71 133.284M1461.89 127.285L1479.9 120.995M1461.89 127.285L1404.76 127.285M1444.71 133.284L1388.91 133.284M1388.91 133.284L1404.76 127.285M1537.39 139.012L1574.54 139.012M1479.9 120.995L1498.8 114.391M1479.9 120.995L1421.39 120.995M1404.76 127.285L1421.39 120.995M1421.39 120.995L1438.84 114.391M1558.77 114.391L1498.8 114.391M1558.77 114.391L1574.54 114.391M1558.77 114.391L1574.54 109.276M1498.8 114.391L1518.67 107.452M1498.8 114.391L1438.84 114.391M1438.84 114.391L1457.18 107.452M1539.58 100.149L1518.67 107.452M1539.58 100.149L1561.62 92.4545M1539.58 100.149L1476.48 100.149M1539.58 100.149L1574.54 100.149M1518.67 107.452L1457.18 107.452M1518.67 107.452L1574.54 107.452M1457.18 107.452L1476.48 100.149M1574.71 109.22L1574.54 109.276M1561.62 92.4545L1496.82 92.4545M1561.62 92.4545L1574.54 92.4545M1561.62 92.4545L1574.54 87.9407M1476.48 100.149L1496.82 92.4545M1496.82 92.4545L1518.28 84.3343M1518.28 84.3343L1540.96 75.7541M1518.28 84.3343L1574.54 84.3343M1564.96 66.6717L1540.96 75.7541M1564.96 66.6717L1574.54 66.6717M1564.96 66.6717L1574.54 63.0491M1540.96 75.7541L1574.54 75.7541M1491.5 191.857L1505.48 188.33M1491.5 191.857L1448.6 191.857M1491.5 191.857L1534.4 191.857M1435.86 195.26L1423.55 198.547M1435.86 195.26L1448.6 191.857M1435.86 195.26L1393.71 195.26M1423.55 198.547L1382.13 198.547M1423.55 198.547L1411.66 201.722M1452.39 201.722L1411.66 201.722M1452.39 201.722L1440.22 204.792M1452.39 201.722L1493.12 201.722M1448.6 191.857L1461.81 188.33M1448.6 191.857L1405.7 191.857M1393.71 195.26L1382.13 198.547M1393.71 195.26L1405.7 191.857M1382.13 198.547L1370.94 201.722M1411.66 201.722L1370.94 201.722M1411.66 201.722L1400.17 204.792M1405.7 191.857L1418.13 188.33M1330.21 201.722L1320.06 204.792M1330.21 201.722L1370.94 201.722M1370.94 201.722L1360.12 204.792M1505.48 188.33L1461.81 188.33M1505.48 188.33L1549.16 188.33M1475.5 184.673L1461.81 188.33M1475.5 184.673L1489.7 180.879M1475.5 184.673L1431.02 184.673M1461.81 188.33L1418.13 188.33M1549.16 188.33L1534.4 191.857M1549.16 188.33L1574.54 188.33M1418.13 188.33L1431.02 184.673M1534.4 191.857L1574.54 191.857M1489.7 180.879L1504.46 176.94M1489.7 180.879L1444.39 180.879M1431.02 184.673L1444.39 180.879M1444.39 180.879L1458.27 176.94M1550.64 176.94L1566.87 172.847M1550.64 176.94L1504.46 176.94M1550.64 176.94L1574.54 176.94M1504.46 176.94L1519.78 172.847M1504.46 176.94L1458.27 176.94M1458.27 176.94L1472.69 172.847M1535.72 168.59L1519.78 172.847M1535.72 168.59L1552.3 164.161M1535.72 168.59L1487.69 168.59M1535.72 168.59L1574.54 168.59M1519.78 172.847L1566.87 172.847M1519.78 172.847L1472.69 172.847M1566.87 172.847L1574.54 170.912M1566.87 172.847L1574.54 172.847M1472.69 172.847L1487.69 168.59M1552.3 164.161L1569.57 159.549M1552.3 164.161L1503.3 164.161M1552.3 164.161L1574.54 164.161M1487.69 168.59L1503.3 164.161M1503.3 164.161L1519.56 159.549M1569.57 159.549L1519.56 159.549M1569.57 159.549L1574.54 158.222M1569.57 159.549L1574.54 159.549M1519.56 159.549L1536.5 154.74M1554.18 149.724L1536.5 154.74M1554.18 149.724L1572.63 144.487M1554.18 149.724L1574.54 149.724M1536.5 154.74L1574.54 154.74M1574.81 154.74L1574.54 154.74M1572.63 144.487L1574.54 144.487M1572.63 144.487L1574.54 143.946M1575 143.816L1574.54 143.946M1562.31 195.26L1547.84 198.547M1562.31 195.26L1574.54 195.26M1562.31 195.26L1574.54 192.485M1547.84 198.547L1533.85 201.722M1547.84 198.547L1574.54 198.547M1493.12 201.722L1480.27 204.792M1493.12 201.722L1533.85 201.722M1533.85 201.722L1520.32 204.792M1533.85 201.722L1574.54 201.722M158.565 204.792L118.513 204.792M158.565 204.792L198.617 204.792M128.325 207.762L125.902 207.029L118.513 204.792M128.325 207.762L88.927 207.762M118.513 204.792L78.4618 204.792M88.927 207.762L86.3434 207.028L85.0428 206.66L78.4618 204.792M78.4618 204.792L38.4102 204.792M38.4102 204.792L-1.64224 204.792M198.617 204.792L238.668 204.792M-1.64224 204.792L-41.6938 204.792M-41.6938 204.792L-29.265 207.762M-41.6938 204.792L-81.7453 204.792M-29.265 207.762L-68.6627 207.762M318.772 204.792L278.72 204.792M318.772 204.792L358.824 204.792M285.915 207.762L284.139 207.029L283.244 206.66L278.72 204.792M285.915 207.762L246.518 207.762M278.72 204.792L238.668 204.792M246.518 207.762L238.668 204.792M358.824 204.792L398.875 204.792M478.978 204.792L438.927 204.792M478.978 204.792L519.03 204.792M443.506 207.762L442.941 207.396L442.375 207.029L441.806 206.66L438.927 204.792M443.506 207.762L404.108 207.762M438.927 204.792L398.875 204.792M404.108 207.762L398.875 204.792M519.03 204.792L559.082 204.792M639.186 204.792L599.134 204.792M639.186 204.792L679.237 204.792M601.096 207.762L599.134 204.792M601.096 207.762L561.698 207.762M599.134 204.792L559.082 204.792M561.698 207.762L561.376 207.396L561.052 207.029L560.727 206.66L559.082 204.792M679.237 204.792L719.289 204.792M799.392 204.792L759.34 204.792M799.392 204.792L839.443 204.792M758.686 207.762L759.34 204.792M758.686 207.762L719.289 207.762M759.34 204.792L719.289 204.792M719.289 207.762L719.289 204.792M839.443 204.792L879.496 204.792M959.599 204.792L919.547 204.792M959.599 204.792L999.651 204.792M916.277 207.762L917.084 207.029L918.72 205.544L919.547 204.792M916.277 207.762L876.879 207.762M919.547 204.792L879.496 204.792M876.879 207.762L877.202 207.396L877.525 207.029L877.85 206.66L879.496 204.792M999.651 204.792L1039.7 204.792M1119.81 204.792L1079.75 204.792M1119.81 204.792L1159.86 204.792M1073.87 207.762L1075.32 207.029L1076.05 206.66L1079.75 204.792M1073.87 207.762L1034.47 207.762M1079.75 204.792L1039.7 204.792M1034.47 207.762L1035.11 207.396L1039.7 204.792M1159.86 204.792L1199.91 204.792M1280.01 204.792L1239.96 204.792M1280.01 204.792L1320.06 204.792M1231.46 207.762L1233.56 207.029L1234.61 206.66L1239.96 204.792M1231.46 207.762L1192.06 207.762M1239.96 204.792L1199.91 204.792M1192.06 207.762L1193.03 207.396L1199.91 204.792M1320.06 204.792L1360.12 204.792M1440.22 204.792L1400.17 204.792M1440.22 204.792L1480.27 204.792M1389.05 207.762L1400.17 204.792M1389.05 207.762L1349.65 207.762M1400.17 204.792L1360.12 204.792M1349.65 207.762L1352.23 207.029L1353.53 206.66L1360.12 204.792M1480.27 204.792L1520.32 204.792M1546.64 207.762L1560.37 204.792M1546.64 207.762L1507.24 207.762M1546.64 207.762L1574.54 207.762M1560.37 204.792L1520.32 204.792M1560.37 204.792L1574.54 201.73M1560.37 204.792L1574.54 204.792M1507.24 207.762L1510.47 207.029L1520.32 204.792M-68.6627 207.762L-71.8931 207.028L-81.7453 204.792M-81.7453 204.792L-121.797 204.792M-121.797 204.792L-135.962 201.729M-121.797 204.792L-135.962 204.792M-135.962 63.049L-135.962 66.6716M-135.962 63.049L-135.962 57.0434M-135.962 66.6716L-135.962 75.754M-135.962 57.0434L-135.962 55.2487L-135.962 46.8168M-135.962 46.8168L-135.962 35.936M-135.962 133.284L-135.962 139.012M-135.962 133.284L-135.962 127.767M-135.962 207.762L-135.962 204.792M-135.962 204.792L-135.962 201.729M-135.962 201.729L-135.997 201.722L-135.962 201.722M-135.962 201.729L-135.962 201.722M-135.962 201.722L-135.962 198.547M-135.962 198.547L-135.962 195.26M-135.962 195.26L-135.962 192.484M-135.962 192.484L-135.962 191.856M-135.962 191.856L-135.962 188.33M-135.962 188.33L-135.962 184.673M-135.962 184.673L-135.962 182.266M-135.962 182.266L-135.962 180.879M-135.962 180.879L-135.962 176.94M-135.962 176.94L-135.962 172.846M-135.962 172.846L-135.962 170.912M-135.962 170.912L-135.962 168.59M-135.962 168.59L-135.962 164.161M-135.962 164.161L-135.962 159.548M-135.962 159.548L-135.962 158.222M-135.962 158.222L-135.962 154.74M-135.962 154.74L-135.962 149.724M-135.962 149.724L-135.962 144.487M-135.962 144.487L-135.962 143.946M-135.962 143.946L-135.962 139.012M-135.962 127.285L-135.962 120.994M-135.962 127.285L-135.962 127.767M-135.962 120.994L-135.962 114.391M-135.962 114.391L-135.962 109.276M-135.962 109.276L-135.962 107.452M-135.962 107.452L-135.962 100.149M-135.962 100.149L-135.962 92.4544M-135.962 92.4544L-135.962 87.9405M-135.962 87.9405L-135.962 84.3342M-135.962 84.3342L-135.962 75.754M-135.962 35.936L-135.962 33.6317M-135.962 33.6317L-135.962 24.3354M-135.962 24.3354L-135.962 11.9409M-135.962 11.9409L-135.962 -1.33157M-135.962 -1.33157L-135.962 -1.6685M-135.962 -1.6685L-135.962 -15.5793M-135.962 -15.5793L-135.962 -30.9129M-135.962 -30.9129L-135.962 -44.8138M-135.962 -44.8138L-135.962 -47.4624M-135.962 -47.4624L-135.962 -65.3775M-135.962 -65.3775L-135.962 -84.8351M-135.962 -84.8351L-135.962 -98.7455M-135.962 -98.7455L-135.962 -106.043M-135.962 -106.043L-135.962 -129.249M-135.962 -129.249L-135.962 -154.749M-135.962 -154.749L-135.962 -168.086M-135.962 -168.086L-135.962 -182.901M-135.962 -182.901L-135.962 -183.001L1574.54 -183.001L1574.54 -182.901M1574.54 127.285L1574.54 120.995M1574.54 127.285L1574.54 127.767M1574.54 127.767L1574.54 133.284M1574.54 133.284L1574.54 139.012M1574.54 139.012L1574.54 143.946M1574.54 143.946L1574.54 144.487M1574.54 144.487L1574.54 149.724M1574.54 149.724L1574.54 154.74M1574.54 154.74L1574.54 158.222M1574.54 158.222L1574.54 159.549M1574.54 159.549L1574.54 164.161M1574.54 164.161L1574.54 168.59M1574.54 168.59L1574.54 170.912M1574.54 170.912L1574.54 172.847M1574.54 172.847L1574.54 176.94M1574.54 176.94L1574.54 180.879M1574.54 180.879L1574.54 182.266M1574.54 182.266L1574.54 184.673M1574.54 184.673L1574.54 188.33M1574.54 188.33L1574.54 191.857M1574.54 191.857L1574.54 192.485M1574.54 192.485L1574.54 195.26M1574.54 195.26L1574.54 198.547M1574.54 198.547L1574.54 201.722M1574.54 201.722L1574.57 201.722L1574.54 201.73M1574.54 201.722L1574.54 201.73M1574.54 201.73L1574.54 204.792M1574.54 204.792L1574.54 207.762M1574.54 -182.901L1574.54 -168.086M1574.54 -168.086L1574.54 -154.749M1574.54 -154.749L1574.54 -129.249M1574.54 -129.249L1574.54 -106.043M1574.54 -106.043L1574.54 -98.7453M1574.54 -98.7453L1574.54 -84.8349M1574.54 -84.8349L1574.54 -65.3774M1574.54 -65.3774L1574.54 -47.4622M1574.54 -47.4622L1574.54 -44.8137M1574.54 -44.8137L1574.54 -30.9127M1574.54 -30.9127L1574.54 -15.5791M1574.54 -15.5791L1574.54 -1.66836M1574.54 -1.66836L1574.54 -1.33143M1574.54 -1.33143L1574.54 11.941M1574.54 11.941L1574.54 24.3355M1574.54 24.3355L1574.54 33.6318M1574.54 33.6318L1574.54 35.9361M1574.54 35.9361L1574.54 46.817M1574.54 46.817L1574.54 57.0435M1574.54 57.0435L1574.54 63.0491M1574.54 63.0491L1574.54 66.6717M1574.54 66.6717L1574.54 75.7541M1574.54 75.7541L1574.54 84.3343M1574.54 84.3343L1574.54 87.9407M1574.54 87.9407L1574.54 92.4545M1574.54 92.4545L1574.54 100.149M1574.54 100.149L1574.54 107.452M1574.54 107.452L1574.54 109.276M1574.54 109.276L1574.54 114.391M1574.54 114.391L1574.54 120.995" stroke="url(#paint0_linear_320_581)" stroke-width="1.8895" stroke-miterlimit="10" stroke-linecap="round" stroke-linejoin="round"/>
<defs>
<linearGradient id="paint0_linear_320_581" x1="719.289" y1="210.637" x2="719.289" y2="-65.3519" gradientUnits="userSpaceOnUse">
<stop stop-color="#E5E7EB" stop-opacity="0"/>
<stop offset="1" stop-color="#E5E7EB"/>
</linearGradient>
</defs>
</svg>
